<svg xmlns="http://www.w3.org/2000/svg" version="1.1" xmlns:xlink="http://www.w3.org/1999/xlink" width="512" height="512" x="0" y="0" viewBox="0 0 60 57" style="enable-background:new 0 0 512 512" xml:space="preserve" class=""><g><g fill="none" fill-rule="nonzero"><g transform="translate(1 1)"><circle cx="29" cy="33" r="18" fill="#e8edfc" opacity="1" data-original="#e8edfc" class=""></circle><path fill="#cad9fc" d="M29 15c-.506 0-1 .035-1.5.076 9.327.77 16.505 8.565 16.505 17.924S36.827 50.154 27.5 50.924c.5.041.994.076 1.5.076 9.941 0 18-8.059 18-18s-8.059-18-18-18z" opacity="1" data-original="#cad9fc" class=""></path><path fill="#e8edfc" d="M16 8c0 7.085-8 14-8 14S0 15.085 0 8a8 8 0 1 1 16 0z" opacity="1" data-original="#e8edfc" class=""></path><path fill="#cad9fc" d="M8 0a8.056 8.056 0 0 0-1.5.145A8 8 0 0 1 13 8c0 5.131-4.186 10.158-6.5 12.549C7.381 21.46 8 22 8 22s8-6.915 8-14a8 8 0 0 0-8-8z" opacity="1" data-original="#cad9fc" class=""></path><circle cx="8" cy="8" r="4" fill="#a4c2f7" opacity="1" data-original="#a4c2f7" class=""></circle><path fill="#e8edfc" d="M58 8c0 7.085-8 14-8 14s-8-6.915-8-14a8 8 0 1 1 16 0z" opacity="1" data-original="#e8edfc" class=""></path><path fill="#cad9fc" d="M50 0a8.056 8.056 0 0 0-1.5.145A8 8 0 0 1 55 8c0 5.131-4.186 10.158-6.5 12.549C49.381 21.46 50 22 50 22s8-6.915 8-14a8 8 0 0 0-8-8z" opacity="1" data-original="#cad9fc" class=""></path><circle cx="50" cy="8" r="4" fill="#a4c2f7" opacity="1" data-original="#a4c2f7" class=""></circle></g><g fill="#fff"><path d="M31.4 51.911C22.12 51.09 15.004 43.316 15.004 34S22.12 16.91 31.4 16.089a18.211 18.211 0 0 0-2.9-.013c-9.327.77-16.505 8.565-16.505 17.924S19.173 51.154 28.5 51.924c.965.073 1.935.068 2.9-.013zM9 23s.612-.534 1.485-1.435C7.229 18.245 4 13.362 4 9a8 8 0 0 1 6.5-7.855 7.765 7.765 0 0 0-3 0A8 8 0 0 0 1 9c0 5.043 4.315 10.787 8 14z" fill="#ffffff" opacity="1" data-original="#ffffff" class=""></path></g><path fill="#ffffff" d="m2.962 17.5 1.676-1.1a30.725 30.725 0 0 0 5.016 5.839l-1.308 1.518A32.607 32.607 0 0 1 2.962 17.5z" opacity="1" data-original="#ffffff" class=""></path><g fill="#428dff"><path d="M43.428 50.124a20.757 20.757 0 0 1-3.663 2.461 1 1 0 0 0 .931 1.77 22.751 22.751 0 0 0 4.017-2.7 1 1 0 1 0-1.285-1.532zM50.713 41.5a1 1 0 0 0 1.252-.659c.48-1.545.795-3.136.941-4.747a1 1 0 1 0-1.992-.178 21.007 21.007 0 0 1-.859 4.333 1 1 0 0 0 .658 1.251zM8 33h.09a1 1 0 0 0 1-.911c.133-1.47.421-2.923.859-4.333a1 1 0 1 0-1.91-.592 22.952 22.952 0 0 0-.941 4.747A1 1 0 0 0 8 33zM12.345 48.713a1 1 0 1 0 1.531-1.286 20.653 20.653 0 0 1-2.46-3.662 1 1 0 1 0-1.771.93 22.6 22.6 0 0 0 2.7 4.018zM23.757 54.055a1 1 0 0 0-.594 1.91 22.9 22.9 0 0 0 4.748.941h.09a1.001 1.001 0 0 0 .088-2 20.918 20.918 0 0 1-4.332-.851zM36.243 54.055c-1.41.438-2.862.726-4.332.859a1.001 1.001 0 0 0 .088 2h.09a22.9 22.9 0 0 0 4.748-.941 1 1 0 0 0-.594-1.91zM16.572 50.124a1 1 0 1 0-1.285 1.532 22.751 22.751 0 0 0 4.017 2.7 1 1 0 0 0 .931-1.77 20.757 20.757 0 0 1-3.663-2.462zM8.99 41.541a1 1 0 0 0 .955-1.3 21.007 21.007 0 0 1-.859-4.333 1 1 0 1 0-1.992.178c.146 1.611.46 3.202.941 4.747a1 1 0 0 0 .955.708zM50.914 32.089a1 1 0 0 0 .995.911h.09a1 1 0 0 0 .907-1.085 22.952 22.952 0 0 0-.941-4.747 1 1 0 1 0-1.91.592c.438 1.409.725 2.86.859 4.329zM48.584 43.765a20.653 20.653 0 0 1-2.46 3.662 1 1 0 1 0 1.531 1.286 22.6 22.6 0 0 0 2.7-4.018 1 1 0 0 0-1.771-.93z" fill="#428dff" opacity="1" data-original="#428dff" class=""></path><path d="M30 15a19 19 0 1 0 14.431 31.326.972.972 0 0 0 .129-.142A18.983 18.983 0 0 0 30 15zm16.949 18h-5.977a30.825 30.825 0 0 0-1.129-7.576 20.766 20.766 0 0 0 3.682-1.682A16.888 16.888 0 0 1 46.949 33zm-3.424 11.258a20.8 20.8 0 0 0-3.682-1.682A30.825 30.825 0 0 0 40.972 35h5.977a16.888 16.888 0 0 1-3.424 9.258zM13.051 35h5.977c.06 2.562.44 5.107 1.129 7.576a20.8 20.8 0 0 0-3.682 1.682A16.888 16.888 0 0 1 13.051 35zm3.424-11.258c1.17.68 2.403 1.243 3.682 1.682A30.825 30.825 0 0 0 19.028 33h-5.977a16.888 16.888 0 0 1 3.424-9.258zM31 26.969a31.132 31.132 0 0 0 6.906-.953c.643 2.275 1 4.62 1.066 6.984H31zm0-2v-7.851c2.542.56 4.8 3.219 6.259 7A29.3 29.3 0 0 1 31 24.97zm-2-7.852v7.853a29.3 29.3 0 0 1-6.259-.849c1.464-3.784 3.717-6.443 6.259-7.003zm0 9.851V33h-7.972a28.607 28.607 0 0 1 1.066-6.984c2.26.575 4.576.895 6.906.953zM21.028 35H29v6.031c-2.33.058-4.647.378-6.906.953-.643-2.275-1-4.62-1.066-6.984zM29 43.03v7.852c-2.542-.56-4.8-3.219-6.259-7A29.3 29.3 0 0 1 29 43.03zm2 7.852V43.03a29.3 29.3 0 0 1 6.259.849C35.8 47.663 33.542 50.322 31 50.882zm0-9.851V35h7.972a28.607 28.607 0 0 1-1.066 6.984A31.132 31.132 0 0 0 31 41.031zM42.21 22.2c-.957.525-1.956.968-2.988 1.325a17.633 17.633 0 0 0-3.058-5.35A17.032 17.032 0 0 1 42.21 22.2zm-18.374-4.026a17.633 17.633 0 0 0-3.058 5.35A19.337 19.337 0 0 1 17.79 22.2a17.032 17.032 0 0 1 6.046-4.026zM17.79 45.8a19.337 19.337 0 0 1 2.988-1.325 17.633 17.633 0 0 0 3.058 5.35A17.032 17.032 0 0 1 17.79 45.8zm18.374 4.025a17.633 17.633 0 0 0 3.058-5.35c1.032.357 2.031.8 2.988 1.325a17.032 17.032 0 0 1-6.046 4.026zM6.224 21.144a1 1 0 0 1-.01-2h.01a1 1 0 0 1 0 2z" fill="#428dff" opacity="1" data-original="#428dff" class=""></path><path d="M9 0a9.01 9.01 0 0 0-9 9 16.256 16.256 0 0 0 2.962 8.5.978.978 0 0 0 1.4.284c.442-.312.565-.915.28-1.375A14.342 14.342 0 0 1 2 9a7 7 0 0 1 14 0c0 6.538-7.578 13.177-7.654 13.244a1 1 0 1 0 1.308 1.512C9.995 23.462 18 16.457 18 9a9.01 9.01 0 0 0-9-9z" fill="#428dff" opacity="1" data-original="#428dff" class=""></path><path d="M14 9A5 5 0 1 0 4 9a5 5 0 0 0 10 0zM6 9a3 3 0 1 1 6 0 3 3 0 0 1-6 0zM51 0a9.01 9.01 0 0 0-9 9c0 7.457 8.005 14.462 8.346 14.756a1 1 0 0 0 1.308 0C52 23.462 60 16.457 60 9a9.01 9.01 0 0 0-9-9zm0 21.635C49.147 19.846 44 14.389 44 9a7 7 0 0 1 14 0c0 5.389-5.147 10.846-7 12.635z" fill="#428dff" opacity="1" data-original="#428dff" class=""></path><path d="M51 4a5 5 0 1 0 0 10 5 5 0 0 0 0-10zm0 8a3 3 0 1 1 0-6 3 3 0 0 1 0 6z" fill="#428dff" opacity="1" data-original="#428dff" class=""></path></g></g></g></svg>