<svg width="620" height="569" viewBox="0 0 620 569" fill="none" xmlns="http://www.w3.org/2000/svg">
<g clip-path="url(#clip0_161_31)">
<path d="M427.5 120L441 85.5C549 114 598.5 153 601.5 154C604.5 155 611 161.5 606 168.5C602 174.1 602.333 177.833 603 179L609 193.5L427.5 120Z" fill="#021D2A"/>
<path d="M218 0C221.728 0.521667 225.052 1.68267 228.551 3.03906C230.167 3.6566 230.167 3.6566 231.816 4.28662C232.97 4.72829 234.124 5.16995 235.312 5.625C243.943 8.87681 252.554 11.8941 261.438 14.375C287.395 21.6569 312.794 30.9119 338.185 39.9379C354.615 45.7745 371.122 51.3885 387.623 57.0194C390.307 57.9357 392.991 58.8529 395.675 59.7703C406.44 63.4504 406.44 63.4504 417.218 67.0924C434.099 72.7632 450.601 79.0613 467 86C467.735 86.3108 468.47 86.6217 469.228 86.942C478.54 90.8815 487.845 94.8389 497.148 98.8008C497.994 99.161 498.84 99.5213 499.712 99.8925C503.523 101.516 507.334 103.142 511.142 104.775C528.896 112.387 546.806 119.469 564.886 126.27C575.866 130.401 586.783 134.666 597.661 139.058C600.119 140.048 602.58 141.033 605.042 142.016C609.595 143.836 600.497 145.671 605.042 147.512C605.846 147.837 604.213 148.163 605.042 148.499C607.667 149.561 602.417 150.624 605.042 151.688C607.84 152.821 602.243 153.954 605.042 155.087C606.974 155.869 603.11 156.652 605.042 157.434C598.27 154.696 611.812 160.175 605.042 157.434C602.252 156.306 607.831 158.562 605.042 157.434C603.278 156.721 606.805 158.147 605.042 157.434C616.338 162 593.781 180.347 605.042 185C605.042 185.33 605.042 185.66 605.042 186C596.565 185.692 612.901 182.791 605.042 179.861C595.766 176.406 614.397 160.663 605.042 157.434C606.033 157.777 604.079 157.101 605.042 157.434C605.919 157.737 604.19 157.14 605.042 157.434C607.887 158.506 602.177 156.415 605.042 157.434C609.605 159.057 600.502 155.746 605.042 157.434C607.327 158.249 602.757 156.62 605.042 157.434C603.846 157.008 606.274 156.634 605.042 156.196C582.946 148.323 576.971 140.4 554.927 132.382C538.432 126.2 538.432 126.2 521.5 121.438C512.75 119.17 504.516 115.728 496.14 112.361C481.383 106.475 466.323 101.219 451 97C451 96.34 451 95.68 451 95C450.207 94.9064 449.415 94.8128 448.598 94.7163C440.4 93.6203 433.149 91.5595 425.438 88.625C422.996 87.7242 420.554 86.8265 418.109 85.9336C417.469 85.6987 416.829 85.4639 416.169 85.2219C407.9 82.206 399.543 79.4526 391.188 76.6875C390.439 76.4394 389.69 76.1913 388.919 75.9356C383.256 74.0585 377.592 72.1842 371.925 70.316C369.925 69.6561 367.925 68.9943 365.926 68.332C364.781 67.9541 363.637 67.5762 362.458 67.1868C359.288 66.0988 356.155 64.9441 353.021 63.7581C349.759 62.5342 346.474 61.3753 343.188 60.2188C342.093 59.8333 342.093 59.8333 340.977 59.4401C332.337 56.4044 323.669 53.4507 315 50.5C311.414 49.2789 307.828 48.0576 304.242 46.8359C302.872 46.3692 302.872 46.3692 301.474 45.893C295.722 43.9325 289.974 41.9605 284.229 39.9794C280.44 38.6731 276.651 37.37 272.861 36.0671C271.043 35.441 269.225 34.8132 267.408 34.1838C264.88 33.3085 262.35 32.4388 259.82 31.5703C259.069 31.3085 258.318 31.0467 257.544 30.777C254.569 29.7609 252.167 29 249 29C254.867 36.2593 260.87 43.3827 266.957 50.457C271.214 55.4056 275.422 60.3948 279.632 65.3823C281.025 67.0291 282.42 68.6731 283.816 70.3164C288.135 75.4023 292.425 80.5028 296.625 85.6875C299.448 89.1608 302.347 92.5166 305.375 95.8125C309.602 100.441 313.463 105.303 317.283 110.267C319.043 112.548 320.76 114.765 322.82 116.785C324 118 324 118 324 120C324.66 120 325.32 120 326 120C327.91 122.082 327.91 122.082 330.062 124.812C330.775 125.706 331.488 126.599 332.223 127.52C334 130 334 130 335 133C331.933 132.671 331.087 132.104 329.062 129.688C328.382 128.801 327.701 127.914 327 127C326.237 126.402 325.474 125.804 324.688 125.188C322.384 123.313 320.685 121.558 318.776 119.314C315.304 115.303 311.657 111.528 307.891 107.793C307.218 107.122 306.546 106.451 305.853 105.759C304.406 104.317 302.959 102.875 301.51 101.435C299.212 99.1494 296.916 96.8606 294.622 94.571C289.751 89.7112 284.876 84.8553 280 80C274.346 74.3693 268.693 68.7369 263.044 63.1003C260.794 60.856 258.54 58.6148 256.286 56.3738C254.894 54.985 253.501 53.5961 252.109 52.207C251.491 51.5938 250.873 50.9806 250.235 50.3488C246.496 46.61 242.957 42.7451 239.505 38.7393C236.262 34.9916 232.782 31.474 229.312 27.9375C228.567 27.1544 227.821 26.3713 227.053 25.5645C226.33 24.8303 225.608 24.0962 224.863 23.3398C224.217 22.6733 223.57 22.0068 222.904 21.3201C221.089 19.7708 221.089 19.7708 218.837 20.1311C216.719 20.8989 216.719 20.8989 215.75 23.5625C215.379 24.7691 215.379 24.7691 215 26C214.34 26 213.68 26 213 26C212.01 29.465 212.01 29.465 211 33C210.34 33 209.68 33 209 33C208.67 34.65 208.34 36.3 208 38C207.34 38 206.68 38 206 38C205.783 39.1756 205.783 39.1756 205.562 40.375C205 43 205 43 204 45C203.34 45 202.68 45 202 45C201.797 45.8005 201.797 45.8005 201.59 46.6172C199.898 52.4721 197.3 56.7985 193.621 61.6406C191.984 64.0239 190.968 66.2843 190 69C189.34 69 188.68 69 188 69C187.814 70.1756 187.814 70.1756 187.625 71.375C187 74 187 74 185 76C184.253 77.7221 183.507 79.4453 182.789 81.1797C181.733 83.6164 180.518 85.8215 179 88C178.34 88 177.68 88 177 88C176.732 88.7116 176.464 89.4231 176.188 90.1562C174.566 94.0389 172.496 97.6169 170.438 101.281C169.101 103.81 168.008 106.326 167 109C166.34 109 165.68 109 165 109C164.767 109.639 164.533 110.279 164.293 110.938C162.54 115.091 160.429 119.022 158.312 123C157.865 123.845 157.417 124.69 156.956 125.561C155.64 128.042 154.32 130.521 153 133C152.344 134.238 151.687 135.477 151.031 136.715C148.218 141.99 145.316 147.18 142.25 152.312C139.608 156.783 137.612 161.07 136 166C135.34 166 134.68 166 134 166C133.66 167.145 133.66 167.145 133.312 168.312C131.518 173.353 129.259 178.153 127 183C126.34 183 125.68 183 125 183C124.01 185.97 123.02 188.94 122 192C121.34 192 120.68 192 120 192C119.711 192.866 119.423 193.733 119.125 194.625C118.083 197.75 117.042 200.875 116 204C117.489 203.255 118.979 202.511 120.468 201.765C121.754 201.123 123.041 200.482 124.329 199.842C127.082 198.473 129.82 197.097 132.523 195.633C143.07 189.971 154.98 186.108 166.828 184.488C171.64 183.748 176.355 182.614 181.097 181.522C185.943 180.419 190.778 179.535 195.688 178.75C208.523 176.412 220.917 171.604 232.898 166.523C252.568 158.252 272.335 153.693 293.371 150.556C299.165 149.668 304.928 148.649 310.688 147.562C312.164 147.309 312.164 147.309 313.671 147.05C320.958 145.65 326.646 142.755 333 139C334.327 138.321 335.658 137.649 337 137C336.858 135.104 336.711 133.208 336.562 131.312C336.481 130.257 336.4 129.201 336.316 128.113C336.035 125.349 335.598 122.711 335 120C336.32 120 337.64 120 339 120C339 120.66 339 121.32 339 122C339.66 122 340.32 122 341 122C341.628 123.228 342.252 124.457 342.875 125.688C343.223 126.372 343.571 127.056 343.93 127.762C345 130 345 130 345.689 132.509C346.803 135.236 346.803 135.236 349.667 136.239C351.34 136.664 351.34 136.664 353.047 137.098C354.286 137.424 355.524 137.751 356.801 138.088C358.117 138.413 359.433 138.738 360.75 139.062C363.287 139.719 365.823 140.377 368.359 141.035C369.62 141.357 370.881 141.679 372.18 142.01C381.164 144.338 389.855 146.712 398.254 150.723C402.219 152.567 406.277 154.104 410.371 155.637C412.858 156.571 415.322 157.527 417.785 158.52C430.203 163.415 442.969 166.904 455.844 170.36C468.36 173.729 480.611 177.269 492.367 182.821C496.955 184.875 501.709 186.371 506.5 187.875C507.57 188.215 508.639 188.554 509.741 188.904C518.72 191.704 527.78 194.135 536.91 196.39C556.887 201.363 576.332 208.043 595.8 214.689C617.802 222.198 582.411 222.198 605.042 227.433C610.404 228.392 600.024 229.883 605.042 231.996C609.028 233.613 600.911 234.78 605.042 235.969C605.976 236.242 604.08 236.515 605.042 236.796C608.142 237.702 601.94 238.601 605.042 239.5C607.246 240.143 602.838 240.787 605.042 241.431C609.872 242.842 600.211 244.25 605.042 245.658C617.623 249.326 592.47 253.031 605.042 256.731C610.316 258.283 599.767 259.834 605.042 261.385C607.17 262.011 602.913 262.636 605.042 263.262C606.372 263.654 603.711 264.045 605.042 264.436C606.885 264.977 603.199 265.519 605.042 266.062C606.165 266.391 603.885 266.721 605.042 267.06C608.73 268.155 601.372 269.288 605.042 270.442C607.264 271.024 602.755 271.295 605.042 271.484C610.186 271.94 600.195 273.533 605.042 275.25C606.88 275.883 603.203 276.514 605.042 277.145C606.402 277.614 603.654 277.614 605.042 278.092C609.016 279.442 601.032 280.698 605.042 281.938C605.723 282.149 604.34 282.36 605.042 282.577C603.5 282.104 606.582 283.053 605.042 282.577C605.042 281.557 605.042 283.567 605.042 282.577C609.318 283.579 600.702 281.898 605.042 282.577C605.7 282.731 604.403 282.428 605.042 282.577C606.384 282.893 603.699 282.263 605.042 282.577C603.01 282.099 607.074 282.09 605.042 281.615C603.728 281.307 606.356 280.999 605.042 280.691C603.794 280.399 606.327 280.106 605.042 279.805C602.387 279.168 607.677 278.488 605.042 277.777C601.662 277.011 608.479 276.549 605.042 277C602.447 278.624 607.259 278.624 605.042 280.875C604.272 281.594 605.835 281.836 605.042 282.577C605.985 280.446 603.129 284.391 605.042 282.577C603.852 282.662 606.197 282.495 605.042 282.577C601.117 279.69 609.916 282.594 605.042 282.577C611.017 282.604 605.366 282.7 605.042 282.577C605.742 282.561 604.362 282.593 605.042 282.577C605.365 282.764 603.48 282.208 605.042 282.577C606.063 282.806 604.05 282.355 605.042 282.577C611.087 282.549 599.091 281.22 605.042 282.577C607.033 280.06 602.783 284.373 605.042 282.577C605.848 281.63 604.259 283.496 605.042 282.577C605.851 281.59 604.257 283.535 605.042 282.577C605.776 281.686 604.329 283.442 605.042 282.577C606.495 280.78 605.029 282.983 605.042 282.577C608.496 278.629 604.5 283.588 605.042 282.577C606.443 280.885 603.603 284.237 605.042 282.577C605.546 281.997 604.553 283.14 605.042 282.577C605.267 278.222 604.429 283.224 605.042 282.577C607.223 279.305 605.166 282.638 605.042 282.577C605.722 282.577 604.382 282.577 605.042 282.577C605.042 281.897 605.042 283.237 605.042 282.577C606.295 283.206 600 277.088 605.042 282.577C605.067 282.815 603.392 280.927 605.042 282.577C605 283.088 605.094 279.275 605.042 282.577C601.28 283.214 607.542 281.077 605.042 282.577C604.61 283.296 610.288 281.312 605.042 282.577C603.914 284.034 606.167 281.118 605.042 282.577C604.193 283.692 605.873 281.485 605.042 282.577C604.695 282.974 607.406 279.521 605.042 282.577C604.427 283.281 608.482 278.534 605.042 282.577C604.319 283.448 605.743 281.732 605.042 282.577C604.588 283.071 606.879 280.189 605.042 282.577C605.839 282.764 604.268 282.395 605.042 282.577C609.091 284.223 605.042 282.86 605.042 282.577C609.62 283.585 600.676 280.847 605.042 282.577C607.57 283.228 602.494 282.001 605.042 282.577C605.742 282.757 604.362 282.402 605.042 282.577C606.959 283.078 603.124 282.081 605.042 282.577C610.471 283.453 599.694 281.277 605.042 282.577C585.684 279.366 572.533 274.255 554 268C550.818 266.941 547.631 265.9 544.438 264.875C543.302 264.501 542.166 264.127 540.996 263.742C537.789 262.948 535.285 262.587 532 263C530.169 264.461 530.169 264.461 528.875 266.75C528.287 267.665 527.699 268.58 527.094 269.523C526.392 270.68 525.695 271.839 525 273C524.58 273.698 524.16 274.395 523.727 275.114C521.757 278.39 519.793 281.667 517.85 284.959C515.129 289.548 512.334 294.059 509.371 298.496C508.777 299.387 508.183 300.278 507.571 301.196C506.425 302.901 505.269 304.599 504.101 306.289C500.967 310.958 499.264 314.346 499 320C500.65 320.66 502.3 321.32 504 322C504 324.64 504 327.28 504 330C503.34 330 502.68 330 502 330C501.691 330.639 501.381 331.279 501.062 331.938C500 334 500 334 499 335C490.255 336.21 478.901 333.951 471 330C470.821 324.802 470.974 320.887 473 316C474 315 474 315 475.848 314.902C477.898 314.935 479.949 314.967 482 315C482.222 314.348 482.443 313.695 482.672 313.023C484.463 308.946 486.835 305.358 489.25 301.625C494.702 293.109 499.985 284.5 505.19 275.831C507.62 271.806 510.046 267.856 512.848 264.078C514.733 261.382 515.378 260.074 516 257C515.122 256.853 515.122 256.853 514.227 256.703C507.973 255.614 501.764 254.348 495.562 253C494.781 252.834 494 252.668 493.196 252.497C489.492 251.68 486.366 250.783 483 249C481.386 248.616 479.759 248.285 478.125 248C475.37 247.516 472.853 246.95 470.203 246.039C466.381 244.799 462.575 244.075 458.625 243.375C457.889 243.241 457.153 243.107 456.395 242.969C454.597 242.642 452.799 242.32 451 242C451 241.34 451 240.68 451 240C449.84 239.875 448.68 239.75 447.484 239.621C443.313 239.099 439.305 238.153 435.25 237.062C428.549 235.318 421.859 233.987 415 233C415 232.34 415 231.68 415 231C413.804 231.041 412.607 231.082 411.375 231.125C407.543 231.138 404.625 230.261 401 229C397.75 228.832 397.75 228.832 395 229C394.879 229.736 394.758 230.472 394.633 231.23C394.465 232.206 394.298 233.182 394.125 234.188C393.881 235.632 393.881 235.632 393.633 237.105C393 240 393 240 392.023 242.34C390.971 245.076 390.45 247.564 390 250.457C389.835 251.488 389.67 252.518 389.5 253.58C389.335 254.647 389.17 255.713 389 256.812C387.141 268.702 387.141 268.702 385.941 273.242C384.932 277.27 384.385 281.194 383.938 285.312C383.125 292.625 383.125 292.625 382 296C384.31 296.66 386.62 297.32 389 298C389 300.97 389 303.94 389 307C388.34 307 387.68 307 387 307C386.34 308.65 385.68 310.3 385 312C378.843 312.336 373.115 311.667 367.062 310.625C366.305 310.499 365.547 310.373 364.766 310.243C359.247 309.247 359.247 309.247 357 307C356.346 302.208 355.978 297.552 358.688 293.438C361 292 361 292 363.484 291.41C366.356 290.139 366.356 290.139 367.441 286.562C367.841 285.048 368.212 283.526 368.562 282C368.767 281.168 368.972 280.335 369.183 279.478C371.346 270.274 372.669 260.932 374.02 251.582C375.412 242.007 377.209 232.507 379 223C376.69 222.67 374.38 222.34 372 222C361.77 219.69 351.54 217.38 341 215C341 261.2 341 521.4 341 569C340.01 568.67 339.02 568.34 338 568C336.991 545.284 335.987 522.574 335.397 499.843C335.022 485.964 334.351 472.098 333.66 458.232C333.168 448.142 332.869 224.102 333 214C332.367 214.201 331.734 214.403 331.083 214.61C329.573 215.09 328.064 215.571 326.555 216.051C323.938 216.944 323.938 216.944 321.465 218.449C316.387 220.722 311.141 221.511 305.688 222.5C298.912 223.742 292.362 225.036 285.861 227.344C283.664 228.118 281.463 228.694 279.188 229.188C278.48 229.346 277.772 229.505 277.043 229.668C275 230 275 230 271 230C271.938 236.259 272.88 242.517 273.826 248.774C274.146 250.896 274.465 253.018 274.783 255.14C275.929 275.23 275.929 275.23 282 293C283.347 293.231 284.704 293.412 286.062 293.562C287.362 293.707 288.661 293.851 290 294C291.976 298.941 292.516 302.752 292 308C288.565 311.901 283.493 312.009 278.625 312.688C277.787 312.817 276.949 312.947 276.086 313.08C271.686 313.734 267.461 314.153 263 314C259.99 308.984 259.621 305.691 260 300C260.33 299.34 260.66 298.68 261 298C263.322 297.593 265.657 297.256 268 297C267.203 291.899 266.403 286.799 265.601 281.698C265.33 279.972 265.06 278.245 264.79 276.518C263.282 266.875 261.734 257.243 259.992 247.639C259.233 243.435 258.581 239.231 258 235C250.925 234.434 245.008 236.234 238.282 238.311C228.033 241.406 217.694 244.214 207.375 247.062C205.546 247.57 205.546 247.57 203.68 248.088C197.983 249.661 192.288 251.184 186.539 252.559C182.118 253.643 178.173 255.167 174 257C170.817 257.959 167.601 258.764 164.375 259.562C159.431 260.799 154.731 262.092 150 264C146.724 264.853 143.443 265.646 140.146 266.412C136.66 267.25 133.335 268.206 129.992 269.512C126.038 271.048 122.078 271.99 117.938 272.875C112.14 274.191 106.418 275.641 100.75 277.438C99.5692 277.807 98.3884 278.177 97.1719 278.559C93.015 280.448 89.8667 282.732 88.1953 287.105C88.014 292.474 89.474 295.075 93.0625 299.062C94.6993 300.717 96.345 302.363 98 304C99.3054 305.467 100.599 306.945 101.875 308.438C102.908 309.633 103.949 310.821 105 312C105.434 312.557 105.869 313.114 106.316 313.688C108.801 315.624 110.957 315.446 114.062 315.562C119.792 315.792 119.792 315.792 122 318C122.266 320.75 122.266 320.75 122.25 324C122.258 325.609 122.258 325.609 122.266 327.25C122 330 122 330 120 332C111.751 334.444 102.629 336.539 94 336C90.9927 332.993 90.7909 330.075 90.6875 326C90.793 322.28 91.2207 319.336 93 316C91.35 316.33 89.7 316.66 88 317C88.0052 318.22 88.0105 519.44 88.0159 520.697C88.0341 525.263 88.0455 529.829 88.0549 534.395C88.0599 536.364 88.0667 538.333 88.0754 540.301C88.0877 543.146 88.0933 545.991 88.0977 548.836C88.1028 549.703 88.108 550.57 88.1133 351.463C88.1138 357.364 87.6893 563.141 87 569C86.34 569 85.68 569 85 569C84.9748 567.888 84.9748 567.888 84.9491 566.754C84.776 559.691 84.532 552.635 84.2126 545.578C84.0508 541.95 83.9145 538.326 83.8406 534.696C83.8014 514.396 83.8014 314.396 73.7891 297.504C71.8256 295.726 69.8325 294.038 67.7503 292.402C65.5184 290.614 63.6413 288.601 61.7461 286.465C60.0313 284.637 58.3166 282.809 56.6016 280.981C53.4582 277.629 50.3202 274.272 47.1914 270.906C46.5714 270.24 45.9515 269.574 45.3127 268.887C44.1506 267.637 42.9896 266.386 41.8298 265.135C38.4841 261.537 35.0736 258.02 31.573 254.573C30.3162 253.316 29.1114 252.008 27.9258 250.684C25.4815 248.547 23.3032 247.93 20.1875 247.062C11.7398 244.394 6.92301 240.969 2.15625 233.426C0.329064 229.592 0.134018 226.222 0 222C0.99 222 1.98 222 3 222C3.39832 222.771 3.79664 223.542 4.20703 224.336C4.73684 225.339 5.26664 226.342 5.8125 227.375C6.33457 228.373 6.85664 229.37 7.39453 230.398C8.89165 233.229 8.89165 233.229 12 235C14.4004 235.394 14.4004 235.394 17.0625 235.375C17.9404 235.403 18.8182 235.432 19.7227 235.461C24.4925 234.79 28.5896 232.879 33 231C34.7 230.317 36.4018 229.639 38.1055 228.965C38.944 228.63 39.7825 228.296 40.6465 227.951C42.3519 227.271 44.0577 226.591 45.7637 225.912C49.4665 224.434 53.1568 222.944 56.8086 221.344C59.4977 220.211 62.0661 219.324 64.875 218.562C68.2615 217.589 71.3758 216.439 74.5625 214.938C78.1331 213.292 81.486 212.325 85.332 211.562C88.8551 210.82 92.3319 209.918 95.8125 209C97.0771 208.67 98.3416 208.34 99.6445 208C104.648 206.667 104.648 206.667 108.125 203.188C108.719 201.703 109.306 200.216 109.887 198.727C111.068 195.834 112.362 193.017 113.688 190.188C116.056 185.093 118.333 179.969 120.562 174.812C122.485 170.367 124.46 165.992 126.688 161.688C128.427 158.317 129.768 154.963 131 151.375C132.181 147.979 133.428 145.105 135.438 142.125C137.614 138.877 138.934 135.681 140.25 132C142.513 125.817 145.463 120.3 148.79 114.645C151.202 110.53 153.136 106.401 155 102C156.589 98.7616 158.259 95.5678 159.938 92.375C160.582 91.1259 160.582 91.1259 161.24 89.8516C163.025 86.4496 164.716 83.3535 167.129 80.3516C169.446 77.4393 170.593 74.4366 172 71C180.779 54.3296 191.437 38.579 202 23C202.619 22.0859 203.239 21.1718 203.877 20.23C205.936 17.1934 207.999 14.1587 210.062 11.125C210.731 10.1423 211.399 9.15966 212.087 8.14722C212.709 7.23496 213.332 6.32271 213.973 5.38281C214.532 4.56184 215.092 3.74087 215.668 2.89502C217 1 217 1 218 0Z" fill="#04BB00"/>
<path d="M218 19C222.186 19.1673 224.37 22.0128 227.176 24.8477C227.664 25.3378 228.152 25.8279 228.655 26.3329C229.688 27.3726 230.718 28.416 231.744 29.4626C233.29 31.0394 234.846 32.6055 236.404 34.1699C240.465 38.2677 244.469 42.3596 248.231 46.7343C251.721 50.7325 255.379 54.5141 259.141 58.2546C259.817 58.9305 260.493 59.6064 261.189 60.3028C263.397 62.5102 265.609 64.7141 267.82 66.918C269.368 68.4638 270.915 70.0098 272.463 71.556C276.519 75.6086 280.578 79.6582 284.639 83.7072C288.767 87.8258 292.893 91.9472 297.02 96.0684C303.682 102.722 310.347 109.375 317.013 116.024C318.158 117.166 319.302 118.308 320.446 119.45C321.908 120.908 323.373 122.364 324.838 123.819C326.574 125.571 328.12 127.304 329.625 129.25C331.77 132.207 331.77 132.207 335 133C334.025 131.844 334.025 131.844 333.031 130.664C332.196 129.661 331.361 128.658 330.5 127.625C329.665 126.627 328.829 125.63 327.969 124.602C326 122 326 122 326 120C325.34 120 324.68 120 324 120C322.32 118.014 320.747 116.015 319.188 113.938C315.112 108.626 310.909 103.475 306.5 98.4375C305.953 97.8124 305.406 97.1873 304.843 96.5432C303.753 95.2971 302.662 94.051 301.571 92.8052C299.145 90.0181 296.757 87.1994 294.375 84.375C293.929 83.8464 293.483 83.3178 293.023 82.7732C292.13 81.7133 291.236 80.6531 290.343 79.5928C288.066 76.8919 285.783 74.1962 283.5 71.5C282.583 70.4167 281.667 69.3334 280.75 68.25C280.296 67.7138 279.843 67.1775 279.375 66.625C278 65 276.625 63.375 275.25 61.75C274.796 61.2136 274.342 60.6772 273.875 60.1245C272.959 59.0429 272.044 57.9612 271.129 56.8794C268.816 54.1438 266.5 51.4101 264.18 48.6797C258.378 41.8462 252.649 34.9607 247 28C250.549 26.8171 251.302 27.229 254.707 28.5195C255.67 28.8772 256.634 29.2348 257.626 29.6033C258.678 30.0023 259.729 30.4014 260.812 30.8125C270.405 34.3625 280.036 37.7346 289.75 40.9375C301.026 44.6638 312.265 48.4849 323.485 52.3772C332.318 55.4361 341.176 58.4148 350.064 61.313C354.288 62.703 358.449 64.1509 362.562 65.8438C370.186 68.9493 378.019 71.4851 385.812 74.125C389.218 75.2815 392.623 76.4395 396.027 77.5977C396.874 77.8855 397.722 78.1734 398.594 78.47C403.866 80.2641 409.126 82.0853 414.379 83.9336C426.475 88.1831 438.437 92.349 451 95C447.283 96.1358 445.529 95.6667 442 94C448.353 101.887 458.785 103.398 468.253 105.43C475.738 107.138 480.904 110.691 486.688 115.625C491.866 120.034 494.613 122.15 501.533 122.225C510.988 122.339 517.255 124.298 524.137 131.117C526.17 133.355 528.09 135.657 530 138C531.141 139.296 532.287 140.587 533.438 141.875C536.311 145.175 539.136 148.513 541.938 151.875C542.71 152.801 543.482 153.726 544.277 154.68C546 157 546 157 546 159C550.222 159.614 554.114 160.033 558.375 159.812C567.976 159.796 576.102 165.683 584.178 170.286C589.643 173.361 595.119 175.733 601.023 177.863C608.482 180.712 615.379 183.594 619 191C620.357 195.07 620.525 198.744 620 203C617.796 207.325 615.22 210.562 611 213C605.076 213.976 601.251 212.786 596 210C593.464 209.442 590.935 209.009 588.367 208.625C585.645 207.906 584.233 206.686 582 205C577.372 203.208 572.567 202.098 567.75 200.938C560.268 199.134 560.268 199.134 558 198C556.233 197.789 554.465 197.583 552.694 197.406C542.529 196.365 533.981 194.873 526.188 187.812C521.079 183.403 516.913 183.249 510.328 183.113C503.359 182.876 498.865 180.889 493.688 176.312C489.105 172.49 485.749 172.515 479.941 172.879C474.412 173.107 469.596 172.064 465 169C462.679 168.292 460.346 167.62 458 167C458 166.34 458 165.68 458 165C457.175 165.062 456.35 165.124 455.5 165.188C452.04 165.002 449.58 164.157 446.402 162.852C443.474 161.814 440.54 161.202 437.5 160.562C425.863 157.918 419.666 152.999 413 143C412.01 142.67 411.02 142.34 410 142C410.33 146.62 410.66 151.24 411 156C405.755 154.556 400.892 153.032 396.004 150.641C389.602 147.687 383.037 145.798 376.25 143.938C375.019 143.586 373.788 143.234 372.519 142.872C367.39 141.419 362.299 139.99 357.055 139.02C348.018 137.299 348.018 137.299 344.777 133.164C341 125.919 341 125.919 341 122C340.34 122 339.68 122 339 122C339 121.34 339 120.68 339 120C337.68 120 336.36 120 335 120C335.474 121.054 335.474 121.054 335.957 122.129C337.754 127.077 338.152 131.847 337 137C334.409 139.888 331.489 141.383 328 143C327.136 143.496 326.273 143.993 325.383 144.504C320.71 146.57 316.004 147.427 311 148.375C309.908 148.591 308.815 148.806 307.69 149.029C301.734 150.182 295.776 151.206 289.773 152.082C276.137 154.097 263.267 156.77 250.188 161.062C249.535 161.276 248.883 161.49 248.211 161.71C241.709 163.862 235.358 166.177 229.136 169.042C212.772 176.383 195.526 180.083 177.992 183.403C175.441 183.912 172.935 184.488 170.418 185.141C167.755 185.81 165.466 186.231 162.75 186.375C153.674 187.267 145.19 191.196 137 195C135.5 195.646 134 196.292 132.5 196.938C128.481 198.707 124.718 200.802 120.945 203.047C119 204 119 204 116 204C116.543 199.435 117.795 196.027 120 192C120.66 192 121.32 192 122 192C122.309 190.886 122.619 189.773 122.938 188.625C124 185 124 185 125 183C125.66 183 126.32 183 127 183C127.17 182.359 127.34 181.719 127.516 181.059C129.074 175.496 130.919 170.887 134 166C134.66 166 135.32 166 136 166C136.095 165.321 136.191 164.641 136.289 163.941C137.161 160.335 138.692 157.217 140.375 153.938C140.831 153.02 140.831 153.02 141.297 152.084C142.958 148.801 144.799 145.931 147 143C148.1 140.915 149.158 138.808 150.188 136.688C152.789 131.39 155.471 126.144 158.25 120.938C158.579 120.319 158.908 119.7 159.247 119.063C163.216 111.652 163.216 111.652 165 109C165.66 109 166.32 109 167 109C167.071 108.346 167.142 107.693 167.215 107.02C168.306 102.823 170.388 99.4144 172.562 95.6875C172.987 94.9469 173.412 94.2064 173.85 93.4434C174.894 91.6253 175.946 89.8122 177 88C177.66 88 178.32 88 179 88C179.248 87.34 179.495 86.68 179.75 86C183.857 76.1429 183.857 76.1429 187 73C187.643 70.9313 187.643 70.9313 188 69C188.66 69 189.32 69 190 69C190.259 68.1221 190.518 67.2443 190.785 66.3398C191.998 63.0068 193.46 60.4932 195.438 57.5625C198.126 53.4621 200.27 49.5799 202 45C202.66 45 203.32 45 204 45C204.66 42.69 205.32 40.38 206 38C206.66 38 207.32 38 208 38C208.33 36.35 208.66 34.7 209 33C209.66 33 210.32 33 211 33C211.66 30.69 212.32 28.38 213 26C213.66 26 214.32 26 215 26C215.186 24.8244 215.186 24.8244 215.375 23.625C216 21 216 21 218 19Z" fill="#C29A6C"/>
<path d="M218 19C222.186 19.1673 224.37 22.0128 227.176 24.8477C227.664 25.3378 228.152 25.8279 228.655 26.3329C229.688 27.3726 230.718 28.416 231.744 29.4626C233.29 31.0394 234.846 32.6055 236.404 34.1699C240.465 38.2677 244.469 42.3596 248.231 46.7343C251.721 50.7325 255.379 54.5141 259.141 58.2546C259.817 58.9305 260.493 59.6064 261.189 60.3028C263.397 62.5102 265.609 64.7141 267.82 66.918C269.368 68.4638 270.915 70.0098 272.463 71.556C276.519 75.6086 280.578 79.6582 284.639 83.7072C288.767 87.8258 292.893 91.9472 297.02 96.0684C303.682 102.722 310.347 109.375 317.013 116.024C318.158 117.166 319.303 118.309 320.447 119.451C321.904 120.904 323.364 122.355 324.824 123.805C327.257 126.259 329.407 128.858 331.57 131.547C333.047 133.268 333.047 133.268 336 134C335.689 136.906 335.066 137.936 332.938 140C325.907 144.787 319.209 146.902 310.875 148.438C309.792 148.649 308.708 148.86 307.592 149.077C301.672 150.209 295.746 151.207 289.781 152.078C276.143 154.098 263.27 156.769 250.188 161.062C249.535 161.276 248.883 161.49 248.211 161.71C241.709 163.862 235.358 166.177 229.136 169.042C212.772 176.383 195.526 180.083 177.992 183.403C175.441 183.912 172.935 184.488 170.418 185.141C167.755 185.81 165.466 186.231 162.75 186.375C153.674 187.267 145.19 191.196 137 195C135.5 195.646 134 196.292 132.5 196.938C128.481 198.707 124.718 200.802 120.945 203.047C119 204 119 204 116 204C116.543 199.435 117.795 196.027 120 192C120.66 192 121.32 192 122 192C122.309 190.886 122.619 189.773 122.938 188.625C124 185 124 185 125 183C125.66 183 126.32 183 127 183C127.17 182.359 127.34 181.719 127.516 181.059C129.074 175.496 130.919 170.887 134 166C134.66 166 135.32 166 136 166C136.095 165.321 136.191 164.641 136.289 163.941C137.161 160.335 138.692 157.217 140.375 153.938C140.831 153.02 140.831 153.02 141.297 152.084C142.958 148.801 144.799 145.931 147 143C148.1 140.915 149.158 138.808 150.188 136.688C152.789 131.39 155.471 126.144 158.25 120.938C158.579 120.319 158.908 119.7 159.247 119.063C163.216 111.652 163.216 111.652 165 109C165.66 109 166.32 109 167 109C167.071 108.346 167.142 107.693 167.215 107.02C168.306 102.823 170.388 99.4144 172.562 95.6875C172.987 94.9469 173.412 94.2064 173.85 93.4434C174.894 91.6253 175.946 89.8122 177 88C177.66 88 178.32 88 179 88C179.248 87.34 179.495 86.68 179.75 86C183.857 76.1429 183.857 76.1429 187 73C187.643 70.9313 187.643 70.9313 188 69C188.66 69 189.32 69 190 69C190.259 68.1221 190.518 67.2443 190.785 66.3398C191.998 63.0068 193.46 60.4932 195.438 57.5625C198.126 53.4621 200.27 49.5799 202 45C202.66 45 203.32 45 204 45C204.66 42.69 205.32 40.38 206 38C206.66 38 207.32 38 208 38C208.33 36.35 208.66 34.7 209 33C209.66 33 210.32 33 211 33C211.66 30.69 212.32 28.38 213 26C213.66 26 214.32 26 215 26C215.186 24.8244 215.186 24.8244 215.375 23.625C216 21 216 21 218 19Z" fill="#C29A6C"/>
<path d="M441.562 180.562C444.679 180.959 446.682 181.591 449.535 182.789C454.92 184.993 460.373 186.924 465.875 188.812C466.859 189.155 467.844 189.498 468.858 189.851C473.86 191.589 478.871 193.293 483.906 194.934C485.289 195.393 485.289 195.393 486.7 195.862C488.451 196.443 490.208 197.012 491.968 197.566C492.75 197.828 493.531 198.09 494.336 198.359C495.022 198.581 495.708 198.802 496.416 199.03C498 200 498 200 498.877 201.919C499 204 499 204 496.625 206.938C496.075 207.534 495.524 208.131 494.957 208.746C492.541 211.528 490.417 214.481 488.312 217.5C487.566 218.562 486.82 219.624 486.051 220.719C484.543 223.131 483.428 225.181 482.359 227.766C480.971 231.069 479.621 232.633 477 235C476.34 235.99 475.68 236.98 475 238C469.806 238.514 465.515 237.509 460.562 236C459.326 235.629 458.09 235.257 456.816 234.875C455.887 234.586 454.958 234.298 454 234C454 233.34 454 232.68 454 232C453.038 231.962 453.038 231.962 452.057 231.924C444.181 231.434 437.259 229.463 429.812 226.938C428.67 226.56 427.527 226.183 426.35 225.795C423.563 224.874 420.78 223.942 418 223C418.756 214.942 418.756 214.942 422.617 210.871C424.466 208.37 425.325 205.799 426.375 202.875C433.992 181.855 433.992 181.855 441.562 180.562Z" fill="#E11414"/>
<path d="M218 19C222.186 19.1673 224.37 22.0128 227.176 24.8477C227.664 25.3378 228.152 25.8279 228.655 26.3329C229.688 27.3726 230.718 28.416 231.744 29.4626C233.29 31.0394 234.846 32.6055 236.404 34.1699C240.465 38.2677 244.469 42.3596 248.231 46.7343C251.721 50.7325 255.379 54.5141 259.141 58.2546C259.817 58.9305 260.493 59.6064 261.189 60.3028C263.397 62.5102 265.609 64.7141 267.82 66.918C269.368 68.4638 270.915 70.0098 272.463 71.556C276.519 75.6086 280.578 79.6582 284.639 83.7072C288.767 87.8258 292.893 91.9472 297.02 96.0684C303.682 102.722 310.347 109.375 317.013 116.024C318.158 117.166 319.303 118.309 320.447 119.451C321.904 120.904 323.364 122.355 324.824 123.805C327.257 126.259 329.407 128.858 331.57 131.547C333.047 133.268 333.047 133.268 336 134C335.689 136.906 335.066 137.936 332.938 140C327.457 143.731 322.854 146.685 316 146C315.89 145.322 315.781 144.644 315.668 143.945C314.15 134.242 314.15 134.242 311 125C310.01 124.67 309.02 124.34 308 124C307.298 122.348 306.636 120.678 306 119C301.59 112.707 296.31 107.026 291.141 101.355C289.293 99.3226 287.483 97.2662 285.688 95.1875C282.014 90.9662 278.204 86.8757 274.399 82.7737C271.763 79.9269 269.156 77.0666 266.625 74.125C262.594 69.458 258.346 64.9906 254.118 60.502C251.096 57.2846 248.165 54.0477 245.375 50.625C239.651 43.9691 230.523 36.4155 221.84 34.5312C218.304 34.4732 216.078 34.956 213 36.6875C209.807 41.976 209.747 47.0091 211 53C214.062 58.058 218.258 61.5612 223 65C222.828 66.8828 222.828 66.8828 222 69C219.672 70.0547 219.672 70.0547 216.75 70.875C211.274 72.7052 209.027 74.0819 206 79C205.685 80.3953 205.373 81.7911 205.062 83.1875C204.398 85.25 204.398 85.25 203 87C199.491 88.1371 196.03 88.7139 192.395 89.3242C187.581 90.2825 186.051 91.1462 183 95C181.415 98.5913 180.186 102.261 179 106C177.812 109.5 177.812 109.5 176 112C173.087 113.406 170.137 114.244 167 115C166.246 115.189 165.492 115.379 164.715 115.574C164.149 115.715 163.583 115.855 163 116C163.875 111.25 163.875 111.25 165 109C165.66 109 166.32 109 167 109C167.071 108.346 167.142 107.693 167.215 107.02C168.306 102.823 170.388 99.4144 172.562 95.6875C172.987 94.9469 173.412 94.2064 173.85 93.4434C174.894 91.6253 175.946 89.8122 177 88C177.66 88 178.32 88 179 88C179.248 87.34 179.495 86.68 179.75 86C183.857 76.1429 183.857 76.1429 187 73C187.643 70.9313 187.643 70.9313 188 69C188.66 69 189.32 69 190 69C190.389 67.6832 190.389 67.6832 190.785 66.3398C191.998 63.0068 193.46 60.4932 195.438 57.5625C198.126 53.4621 200.27 49.5799 202 45C202.66 45 203.32 45 204 45C204.66 42.69 205.32 40.38 206 38C206.66 38 207.32 38 208 38C208.33 36.35 208.66 34.7 209 33C209.66 33 210.32 33 211 33C211.66 30.69 212.32 28.38 213 26C213.66 26 214.32 26 215 26C215.186 24.8244 215.186 24.8244 215.375 23.625C216 21 216 21 218 19Z" fill="#021D2A"/>
<path d="M245 130C251.706 134.471 251.706 134.471 254.625 137.562C258.955 142.321 258.955 142.321 264.84 144.363C265.862 144.347 266.884 144.33 267.938 144.312C269.467 144.307 269.467 144.307 271.027 144.301C274.004 144.141 274.004 144.141 276.598 142.941C280.604 141.371 284.063 142.576 288 144C291.062 146.125 291.062 146.125 293 148C292.67 149.32 292.34 150.64 292 152C291.405 152.069 290.81 152.138 290.197 152.208C276.514 153.881 263.572 156.709 250.5 161C249.841 161.215 249.183 161.43 248.504 161.652C241.899 163.823 235.439 166.13 229.125 169.044C212.776 176.4 195.516 180.085 177.992 183.403C175.441 183.912 172.935 184.488 170.418 185.141C167.755 185.81 165.466 186.231 162.75 186.375C153.674 187.267 145.19 191.196 137 195C135.5 195.646 134 196.292 132.5 196.938C128.481 198.707 124.718 200.802 120.945 203.047C119 204 119 204 116 204C116.543 199.435 117.795 196.027 120 192C120.66 192 121.32 192 122 192C122.309 190.886 122.619 189.773 122.938 188.625C124 185 124 185 125 183C125.66 183 126.32 183 127 183C127.17 182.359 127.34 181.719 127.516 181.059C129.074 175.496 130.919 170.887 134 166C134.66 166 135.32 166 136 166C136.106 165.304 136.211 164.608 136.32 163.891C137.103 160.561 138.358 157.814 139.875 154.75C140.388 153.693 140.901 152.636 141.43 151.547C143 149 143 149 146 148C146.026 148.69 146.052 149.379 146.078 150.09C146.557 158.029 148.058 164.23 153 170.562C157.868 172.895 162.707 172.603 168 172C171.307 170.76 173.343 169.594 175.938 167.25C179.167 165.293 181.422 166.136 185 167C186.361 167.773 186.361 167.773 187.75 168.562C192.518 170.672 196.873 170.921 202 170C206.042 167.842 208.402 165.196 210.438 161.125C210.716 160.073 210.716 160.073 211 159C213.604 159.501 215.316 160.188 217.625 161.562C222.167 163.497 226.128 163.745 231 163C234.403 161.206 234.403 161.206 237 159C237.99 158.67 238.98 158.34 240 158C241.219 155.496 241.219 155.496 242 153C242.66 153 243.32 153 244 153C244.33 145.41 244.66 137.82 245 130Z" fill="#021D2A"/>
<path d="M343 152C349.535 152.705 355.689 154.454 362 156.25C363.105 156.562 364.209 156.874 365.348 157.196C388.919 163.919 388.919 163.919 391 166C390.795 167.904 390.58 169.808 390.316 171.705C390.011 173.921 389.764 176.135 389.535 178.359C389.418 179.444 389.418 179.444 389.299 180.551C389.14 182.032 388.986 183.514 388.838 184.996C388.417 188.808 387.722 191.621 386 195C385.346 197.853 384.896 200.735 384.438 203.625C383.12 211.76 383.12 211.76 382 214C375.334 213.293 369.058 211.461 362.625 209.625C361.54 209.321 360.454 209.017 359.336 208.703C353.164 206.959 347.067 205.082 341 203C341.118 198.213 341.243 193.425 341.372 188.638C341.416 187.01 341.457 185.381 341.497 183.753C341.555 181.412 341.619 179.071 341.684 176.73C341.709 175.638 341.709 175.638 341.734 174.524C341.825 171.438 342.017 168.948 343 166C343.07 163.605 343.084 161.208 343.062 158.812C343.053 157.54 343.044 156.268 343.035 154.957C343.024 153.981 343.012 153.005 343 152Z" fill="#E11414"/>
<path d="M94 228C96.3359 229.899 96.3359 229.899 98.375 232.375C99.0634 233.187 99.7517 233.999 100.461 234.836C102 237 102 237 102 239C102.99 239.33 103.98 239.66 105 240C106.57 242.399 106.57 242.399 108.125 245.375C108.643 246.352 109.161 247.329 109.695 248.336C111 251 111 251 112 254C113.315 254.702 114.651 255.365 116 256C117.75 257.313 117.75 257.313 119 259C119.05 260.666 119.054 262.334 119 264C118.431 264.196 117.862 264.393 117.275 264.595C114.662 265.498 112.05 266.405 109.438 267.313C108.542 267.621 107.647 267.93 106.725 268.248C102.827 269.604 99.0137 270.957 95.2852 272.731C91.3989 274.232 89.1334 274.63 85 274C81.9605 272.395 79.3284 270.363 76.625 268.25C75.0386 267.056 73.4513 265.864 71.8633 264.672C71.0597 264.062 70.2561 263.451 69.4282 262.822C65.6167 259.962 61.717 257.231 57.8125 254.5C55.8331 253.109 53.8545 251.717 51.8813 250.316C50.5863 249.41 49.2776 248.523 47.9585 247.652C46.2548 246.507 44.6201 245.261 43 244C43 243.01 43 242.02 43 241C51.0806 237.517 58.9387 235.182 67.5234 233.387C72.4525 232.356 77.2551 231.153 82.0547 229.613C86.1493 228.322 89.6628 227.518 94 228Z" fill="#E11414"/>
<path d="M232 183C238.27 183 244.54 183 251 183C251.553 186.947 252.105 190.894 252.654 194.841C252.931 196.832 253.211 198.822 253.49 200.812C254.47 207.865 255.374 214.907 256 222C251.258 225.562 246.909 227.134 241.188 228.562C239.583 228.981 237.979 229.402 236.375 229.824C235.236 230.123 235.236 230.123 234.074 230.427C231.563 231.121 229.13 231.972 226.688 232.875C221.137 234.568 221.137 234.568 218 233C215.978 229.793 215 227.808 215 224C214.34 224 213.68 224 213 224C212.732 223.113 212.464 222.226 212.188 221.312C211.159 218.064 211.159 218.064 209.531 215.676C207.858 212.751 207.088 210.147 206.313 206.875C206.061 205.841 205.81 204.807 205.551 203.742C205 201 205 201 205 198C204.34 198 203.68 198 203 198C202.938 195.75 202.938 195.75 204 193C210.828 188.1 223.672 185 232 185C232 184.34 232 183.68 232 183Z" fill="#E11414"/>
<path d="M234.25 106.75C239.297 110.88 243.359 114.514 245 121C245.387 125.923 245.328 130.816 245.25 135.75C245.243 137.09 245.238 138.43 245.234 139.77C245.155 149.536 245.155 149.536 244 153C243.34 153 242.68 153 242 153C241.752 153.757 241.505 154.514 241.25 155.293C239.14 159.862 235.486 161.948 231 164C226.186 164.973 221.716 164.678 217.25 162.563C211.196 158.536 207.104 150.805 205 144C204.545 140.947 204.475 137.959 204.5 134.875C204.506 134.044 204.511 133.212 204.517 132.355C204.753 124.118 206.282 116.455 211.715 109.946C213.402 108.402 215.047 107.181 217 106C217.784 105.526 218.567 105.051 219.375 104.563C224.759 103.409 229.424 104.152 234.25 106.75Z" fill="#04BB00"/>
<path d="M147 211C148.418 213.666 149.834 216.333 151.25 219C151.646 219.744 152.041 220.487 152.449 221.254C154.379 224.893 156.276 228.54 158.09 232.238C160.071 236.234 162.452 239.898 164.926 243.605C166.235 246.523 165.914 247.991 165 251C163.698 251.193 162.396 251.387 161.055 251.586C159.328 251.848 157.602 252.112 155.875 252.375C155.019 252.501 154.163 252.627 153.281 252.758C147.288 253.68 142.028 255.058 136.5 257.625C132.859 259.055 130.854 259.44 127 259C124.77 257.207 124.77 257.207 122.812 254.812C122.159 254.035 121.505 253.258 120.832 252.457C119 250 119 250 117.605 247.672C115.455 244.093 112.985 240.789 110.5 237.437C110.014 236.778 109.528 236.119 109.027 235.439C108.554 234.798 108.081 234.157 107.594 233.496C107.145 232.883 106.697 232.271 106.234 231.64C105.238 230.316 104.175 229.041 103.094 227.785C102 226 102 226 101.91 223.906C103.669 220.829 106.123 220.538 109.438 219.5C110.095 219.292 110.753 219.084 111.431 218.87C117.484 217.02 123.637 215.623 129.832 214.344C133.062 213.676 136.09 212.969 139.215 211.887C141.989 211.003 144.111 210.83 147 211Z" fill="#E11414"/>
<path d="M559 218C564.166 218.38 568.957 219.775 573.875 221.312C582.499 223.937 591.207 226.03 600 228C600.921 231.033 601.196 232.528 599.961 235.5C596.967 240.219 594.059 244.173 590 248C589.505 249.485 589.505 249.485 589 251C587.83 252.136 586.659 253.271 585.477 254.395C582.539 257.589 580.318 261.345 578 265C568.433 264.383 559.308 262.18 550 260C550 259.34 550 258.68 550 258C546.04 257.34 542.08 256.68 538 256C537 252 537 252 538 249.75C539.722 247.383 541.493 245.426 543.5 243.312C546.888 239.557 547.932 236.372 549.121 231.535C550.975 226.187 555.048 221.952 559 218Z" fill="#E11414"/>
<path d="M195 197C198.351 203.341 200.631 209.619 202.711 216.465C204.217 221.218 206.045 224.916 209 229C210.399 232.008 211 233.667 211 237C210.391 237.065 209.782 237.129 209.155 237.196C194.08 238.593 194.08 238.593 180.121 244.012C177.547 245.211 175.807 245.352 173 245C171.181 242.617 170 241.042 170 238C169.34 238 168.68 238 168 238C167.815 237.475 167.631 236.951 167.441 236.41C164.872 229.547 161.54 223.241 157.91 216.891C157.521 216.187 157.131 215.483 156.73 214.758C156.373 214.13 156.017 213.503 155.649 212.856C154.822 210.491 155.102 209.314 156 207C164.518 198.482 183.582 196.393 195 197Z" fill="#E11414"/>
<path d="M508.75 204.617C515.545 204.819 522.027 206.768 528.563 208.5C529.87 208.838 531.178 209.175 532.486 209.512C535.66 210.332 538.831 211.161 542 212C543.134 216.728 543.134 216.728 541.926 219.176C541.393 219.881 540.861 220.586 540.313 221.312C538.234 224.202 536.408 226.974 534.875 230.188C531.458 237.272 526.585 244.415 521 250C513.21 250.672 506.348 248.76 498.938 246.564C497.027 246.008 495.103 245.496 493.18 244.984C492.007 244.66 490.834 244.335 489.625 244C488.565 243.711 487.506 243.423 486.414 243.125C484 242 484 242 483.047 240.055C482.947 235.671 486.673 232.377 489.398 229.238C492.037 226.086 494.041 222.665 496 219.062C496.697 217.831 497.397 216.601 498.098 215.371C499.189 213.437 500.267 211.496 501.309 209.535C503.459 205.896 504.486 205.052 508.75 204.617Z" fill="#E11414"/>
<path d="M296 167C298.487 169.487 298.065 175.506 298.5 178.875C298.664 181.86 298.664 181.86 300 183C300.159 185.217 300.251 187.439 300.316 189.66C300.337 190.325 300.358 190.989 300.379 191.674C300.445 193.803 300.504 195.933 300.562 198.063C300.606 199.503 300.649 200.944 300.693 202.385C300.801 205.923 300.902 209.462 301 213C296.37 214.362 291.981 215.362 287.188 215.938C281.931 216.637 277.096 217.687 272.086 219.414C270 220 270 220 266 220C266.035 219.383 266.07 218.765 266.105 218.129C266.248 213.667 266.188 209.94 264.562 205.75C262.641 200.69 262.464 195.703 262.211 190.332C262.01 187.159 261.578 184.124 261 181C262.361 180.103 262.361 180.103 263.75 179.188C266.836 177.178 266.836 177.178 268.938 175.438C276.206 170.371 287.186 166.425 296 167Z" fill="#E11414"/>
<path d="M332.562 154.938C333.769 154.968 333.769 154.968 335 155C335.025 159.034 335.043 163.069 335.055 167.103C335.06 168.469 335.067 169.836 335.075 171.202C335.231 196.152 335.231 196.152 332.67 199.996C330.904 201.713 329.155 202.803 327 204C325.536 204.833 325.536 204.833 324.043 205.684C314.613 210.718 314.613 210.718 310 210C308.05 207.075 307.711 206.2 307.406 202.896C307.326 202.075 307.246 201.255 307.164 200.409C307.086 199.528 307.009 198.646 306.93 197.738C306.844 196.832 306.758 195.927 306.669 194.993C306.397 192.1 306.136 189.207 305.875 186.312C305.692 184.351 305.509 182.389 305.324 180.428C304.874 175.619 304.434 170.81 304 166C311.45 162.869 318.914 159.852 326.48 157.016C331.576 154.962 331.576 154.962 332.562 154.938Z" fill="#E11414"/>
<path d="M207 41C209.407 43.4068 209.264 44.2693 209.625 47.5625C211.039 55.4316 216.703 60.4958 223 65C222.828 66.8828 222.828 66.8828 222 69C219.672 70.0547 219.672 70.0547 216.75 70.875C211.274 72.7052 209.027 74.0819 206 79C205.685 80.3953 205.373 81.7911 205.062 83.1875C204.398 85.25 204.398 85.25 203 87C199.491 88.1371 196.03 88.7139 192.395 89.3242C187.581 90.2825 186.051 91.1462 183 95C181.415 98.5913 180.186 102.261 179 106C177.812 109.5 177.812 109.5 176 112C173.087 113.406 170.137 114.244 167 115C166.246 115.189 165.492 115.379 164.715 115.574C164.149 115.715 163.583 115.855 163 116C163.875 111.25 163.875 111.25 165 109C165.66 109 166.32 109 167 109C167.071 108.346 167.142 107.693 167.215 107.02C168.306 102.823 170.388 99.4144 172.562 95.6875C172.987 94.9469 173.412 94.2064 173.85 93.4434C174.894 91.6253 175.946 89.8122 177 88C177.66 88 178.32 88 179 88C179.248 87.34 179.495 86.68 179.75 86C183.857 76.1429 183.857 76.1429 187 73C187.643 70.9313 187.643 70.9313 188 69C188.66 69 189.32 69 190 69C190.259 68.1221 190.518 67.2443 190.785 66.3398C191.998 63.0068 193.46 60.4932 195.438 57.5625C198.126 53.4621 200.27 49.5799 202 45C202.66 45 203.32 45 204 45C204.33 44.01 204.66 43.02 205 42C205.66 41.67 206.32 41.34 207 41Z" fill="#021D2A"/>
<path d="M405 170C410.521 170.491 415.229 172.051 420.402 174.016C422.457 174.794 424.537 175.504 426.625 176.188C429 177 429 177 430 178C430.821 182.515 428.979 184.885 426.578 188.465C424.559 191.708 422.876 195.076 421.188 198.5C420.874 199.136 420.56 199.772 420.236 200.427C419.488 201.95 418.743 203.475 418 205C417.34 205 416.68 205 416 205C416 206.65 416 208.3 416 210C415.34 210 414.68 210 414 210C413.876 210.557 413.753 211.114 413.625 211.688C412.935 214.242 412.105 216.595 411 219C407.872 220.564 405.444 220.356 402 220C399.563 218.25 399.563 218.25 398 215C397.629 210.973 397.623 207.027 398 203C398.495 202.505 398.495 202.505 399 202C399.417 198.569 399.768 195.14 400.074 191.697C400.627 186.342 402.006 181.999 404 177C404.477 174.659 404.752 172.38 405 170Z" fill="#E11414"/>
<path d="M425.893 210.144C426.598 210.324 427.304 210.503 428.031 210.687C428.83 210.888 429.63 211.089 430.453 211.296C434.825 212.504 439.167 213.784 443.5 215.125C444.475 215.424 445.451 215.723 446.455 216.031C458.001 219.589 471.003 223.787 482.5 227.5C480.896 231.611 477.909 234.619 475 238C469.799 238.479 465.523 237.512 460.562 236C458.708 235.443 458.708 235.443 456.816 234.875C455.887 234.586 454.958 234.297 454 234C454 233.34 454 232.68 454 232C453.359 231.975 452.718 231.95 452.057 231.924C444.181 231.434 437.259 229.463 429.812 226.937C428.67 226.56 427.527 226.183 426.35 225.795C423.563 224.874 420.78 223.942 418 223C418.75 215.39 418.75 215.39 421 211.875C424 210 424 210 425.893 210.144Z" fill="#021D2A"/>
<path d="M549.074 240.828C553.161 241.007 556.873 241.738 560.812 242.75C562.297 243.116 563.781 243.48 565.266 243.844C566.033 244.033 566.801 244.223 567.592 244.418C571.736 245.42 575.899 246.334 580.062 247.25C580.854 247.425 581.646 247.6 582.462 247.78C584.308 248.188 588.154 249.157 590 249.562C588.31 253.226 584.127 255.908 581.875 259.25C581.151 260.328 580.426 261.405 579.68 262.516C579.125 263.335 578.571 264.155 578 265C568.433 264.383 559.307 262.18 550 260C550 259.34 550 258.68 550 258C544.06 257.01 544.06 257.01 538 256C537 252 537 252 538.125 249.562C540.188 246.743 542.466 244.4 545 242C546 241 546 241 549.074 240.828Z" fill="#021D2A"/>
<path d="M260 45C264.357 46.5835 266.823 49.9795 269.688 53.4375C270.216 54.065 270.745 54.6924 271.29 55.3389C275.196 59.9868 279.024 64.6983 282.848 69.4141C285.042 72.05 287.314 74.5915 289.625 77.125C293.03 80.8601 296.144 84.7185 299.203 88.7383C301.124 91.1556 303.16 93.4156 305.25 95.6875C309.523 100.357 313.425 105.254 317.282 110.266C319.043 112.548 320.76 114.765 322.82 116.785C324 118 324 118 324 120C324.66 120 325.32 120 326 120C327.91 122.082 327.91 122.082 330.062 124.812C330.775 125.706 331.488 126.599 332.223 127.52C334 130 334 130 335 133C331.933 132.671 331.087 132.104 329.062 129.688C328.382 128.801 327.701 127.914 327 127C326.237 126.402 325.474 125.804 324.688 125.188C322.485 123.395 320.958 121.843 319.166 119.694C314.256 114.025 308.888 108.826 303.549 103.566C301.629 101.673 299.714 99.7752 297.8 97.8761C292.364 92.4828 286.926 87.0925 281.471 81.718C278.122 78.4171 274.782 75.1065 271.449 71.7894C270.181 70.5311 268.909 69.2764 267.633 68.0255C265.855 66.2811 264.09 64.5246 262.327 62.7649C261.799 62.2531 261.271 61.7413 260.727 61.214C257.814 58.2755 256.326 56.1738 256 52C257.98 51.67 259.96 51.34 262 51C262 49.68 262 48.36 262 47C261.34 47 260.68 47 260 47C260 46.34 260 45.68 260 45Z" fill="#04BB00"/>
<path d="M69.4282 262.822C69.48 259.321 70.1169 266.266 69.4282 262.822C68.2272 259.746 69.2272 266.559 69.4282 262.822C78.6516 269.492 79.8801 260.801 91 260C96.1192 259.07 100.676 257.675 105.312 255.312C108.571 253.721 110.42 253.391 114 254C116.875 256.187 116.875 256.187 119 259C119.133 261.676 119.133 261.676 119 264C118.431 264.196 117.862 264.393 117.275 264.595C114.662 265.498 112.05 266.405 109.437 267.312C108.542 267.621 107.647 267.93 106.725 268.248C102.827 269.604 99.0137 270.957 95.2851 272.73C91.3989 274.232 89.1334 274.63 85 274C81.9604 272.395 79.3284 270.363 76.625 268.25C75.0385 267.056 73.4513 265.863 71.8632 264.672C71.0597 264.061 70.2561 263.451 69.4282 262.822C73.3326 265.554 65.6167 259.962 69.4282 262.822C71.4013 264.222 67.4488 261.431 69.4282 262.822C70.7473 263.693 68.1331 261.916 69.4282 262.822C71.0482 264.083 67.7245 261.677 69.4282 262.822C69.4282 263.842 69.4282 261.832 69.4282 262.822C67.3222 263.651 71.5299 261.983 69.4282 262.822C68.2209 263.3 70.5999 262.358 69.4282 262.822C66.4282 262.822 72.5649 261.729 69.4282 262.822Z" fill="#021D2A"/>
<path d="M505.563 231.629C506.578 231.86 506.578 231.86 507.613 232.095C509.743 232.581 511.872 233.072 514 233.563C515.457 233.896 516.914 234.228 518.371 234.561C521.915 235.37 525.458 236.184 529 237C528.247 240.396 527.152 242.431 525 245.188C524.464 245.882 523.928 246.577 523.375 247.293C522 249 522 249 521 250C513.21 250.672 506.349 248.76 498.939 246.564C497.027 246.008 495.103 245.496 493.18 244.984C492.007 244.66 490.834 244.335 489.625 244C488.565 243.711 487.506 243.423 486.414 243.125C484 242 484 242 483.039 240.066C482.974 236.625 484.969 234.652 487 232C487.413 231.361 487.825 230.721 488.25 230.063C492.521 227.469 500.993 230.582 505.563 231.629Z" fill="#021D2A"/>
<path d="M298 102C301.222 101.639 302.589 101.693 305.232 103.665C306.339 104.811 306.339 104.811 307.469 105.98C308.287 106.815 309.106 107.65 309.949 108.51C310.791 109.393 311.633 110.277 312.5 111.187C313.763 112.484 313.763 112.484 315.051 113.806C316.672 115.473 318.289 117.144 319.899 118.821C321.546 120.529 323.208 122.214 324.898 123.879C327.304 126.307 329.43 128.886 331.57 131.547C333.047 133.268 333.047 133.268 336 134C335.689 136.906 335.066 137.936 332.938 140C327.457 143.731 322.854 146.685 316 146C315.89 145.322 315.781 144.644 315.668 143.945C314.15 134.242 314.15 134.242 311 125C310.01 124.67 309.02 124.34 308 124C307.598 122.979 307.598 122.979 307.188 121.937C305.754 118.392 303.666 115.893 301.242 112.965C300 111 300 111 300 107C299.34 107 298.68 107 298 107C298 105.35 298 103.7 298 102Z" fill="#021D2A"/>
<path d="M342 192C350.915 192.07 359.898 194.381 368.625 196.062C370.121 196.347 371.617 196.632 373.113 196.916C376.743 197.606 380.372 198.302 384 199C384.027 200.426 384.046 201.852 384.062 203.277C384.074 204.071 384.086 204.865 384.098 205.683C383.971 208.698 383.14 211.222 382 214C375.334 213.293 369.058 211.461 362.625 209.625C361.54 209.321 360.454 209.017 359.336 208.703C353.164 206.959 347.067 205.082 341 203C340.973 201.354 340.954 199.708 340.938 198.062C340.926 197.146 340.914 196.229 340.902 195.285C341 193 341 193 342 192Z" fill="#021D2A"/>
<path d="M156 238C158.188 237.5 158.188 237.5 161 238C163.215 240.402 164.875 242.932 166 246C165.633 248.77 165.633 248.77 165 251C163.698 251.193 162.396 251.387 161.055 251.586C159.328 251.849 157.602 252.112 155.875 252.375C154.591 252.564 154.591 252.564 153.281 252.758C147.288 253.68 142.028 255.058 136.5 257.625C132.815 259.073 130.876 259.825 127 259C124.598 256.939 122.637 254.711 121 252C121 251.01 121 250.02 121 249C125.33 247.677 129.665 246.368 134 245.062C135.221 244.689 136.441 244.316 137.699 243.932C143.817 242.096 149.624 240.502 156 240C156 239.34 156 238.68 156 238Z" fill="#021D2A"/>
<path d="M254 214C254.495 218.455 254.495 218.455 255 223C250.647 225.995 246.293 227.2 241.25 228.5C236.326 229.805 231.471 231.11 226.688 232.875C223 234 223 234 220.188 234.25C216.428 232.101 215.31 227.987 214 224C214 223.34 214 222.68 214 222C218.73 220.852 223.462 219.713 228.197 218.582C229.805 218.196 231.414 217.808 233.021 217.418C235.338 216.855 237.657 216.302 239.977 215.75C240.689 215.575 241.402 215.4 242.136 215.22C246.172 214.269 249.856 213.818 254 214Z" fill="#021D2A"/>
<path d="M207 225C207.674 226.434 208.339 227.873 209 229.312C209.371 230.113 209.743 230.914 210.125 231.738C211 234 211 234 211 237C210.087 237.097 210.087 237.097 209.155 237.196C194.08 238.593 194.08 238.593 180.121 244.012C177.604 245.185 175.745 245.179 173 245C171.68 242.36 170.36 239.72 169 237C171.048 236.455 171.048 236.455 173.137 235.898C182.681 233.298 191.692 230.666 200.504 226.102C203 225 203 225 207 225Z" fill="#021D2A"/>
<path d="M410 142C413.012 142.331 413.96 142.957 416.07 145.215C417.087 146.563 417.087 146.563 418.125 147.938C422.013 153.036 424.259 155.271 430.375 157.438C430.998 157.659 431.622 157.881 432.264 158.109C436.26 159.497 440.242 160.577 444.375 161.5C449.038 162.58 452.398 164.207 456.309 166.926C458.462 168.294 460.474 168.763 463 169C460.483 170.659 459.183 171.014 456.137 170.785C441.094 167.634 424.806 163.897 411 157C409.558 154.116 409.906 151.583 409.938 148.375C409.947 147.186 409.956 145.998 409.965 144.773C409.976 143.858 409.988 142.943 410 142Z" fill="#021D2A"/>
<path d="M498 200C499.65 200 501.3 200 503 200C503 200.99 503 201.98 503 203C504.342 203.073 504.342 203.073 505.711 203.148C525.364 204.364 525.364 204.364 528 207C530.498 207.537 532.989 208.035 535.5 208.5C542.865 209.865 542.865 209.865 544 211C544.393 216.114 543.876 218.797 541 223C540.567 224.237 540.567 224.237 540.125 225.5C538.679 228.713 536.571 230.632 534 233C534.717 227.981 536.903 224.688 539.625 220.5C541.035 217.937 541.495 215.857 542 213C538.181 211.989 534.358 210.993 530.531 210.009C528.6 209.51 526.672 208.999 524.744 208.488C514.974 205.866 514.974 205.866 505 206C502.374 208.506 502.374 208.506 500.75 212C500.099 213.192 499.448 214.383 498.797 215.574C497.907 217.27 497.907 217.27 497 219C496.017 220.615 495.021 222.221 494 223.812C493.34 224.864 492.68 225.916 492 227C491.34 225.68 490.68 224.36 490 223C488.05 223.195 488.05 223.195 486 224C484.716 225.984 484.716 225.984 484 228C483.38 226.203 483.38 226.203 483 224C484.453 221.538 485.903 219.384 487.625 217.125C488.284 216.226 488.284 216.226 488.957 215.309C491.14 212.357 493.395 209.546 495.836 206.805C498.407 204.063 498.407 204.063 498 200Z" fill="#04BB00"/>
<path d="M301 205C301 207.64 301 210.28 301 213C296.416 214.528 291.984 215.315 287.188 215.937C281.904 216.642 277.032 217.702 271.988 219.414C270 220 270 220 267 220C266.958 217.667 266.959 215.333 267 213C268.702 211.298 271.049 211.466 273.375 211.125C283.544 209.539 283.544 209.539 293.109 205.914C295.762 204.631 298.099 204.868 301 205Z" fill="#021D2A"/>
<path d="M60 256C66.9111 260.014 73.5116 264.334 80 269C79 272 79 272 77 273C78.0202 275.747 79.1051 278.174 80.625 280.688C82 283 82 283 82 285C77.651 284.559 75.3521 281.691 72.5 278.688C72.0269 278.201 71.5538 277.714 71.0664 277.213C69.7062 275.813 68.353 274.407 67 273C66.2266 272.285 65.4531 271.569 64.6562 270.832C63 269 63 269 63 266C62.34 265.67 61.68 265.34 61 265C61.33 263.68 61.66 262.36 62 261C61.01 260.67 60.02 260.34 59 260C59.33 258.68 59.66 257.36 60 256Z" fill="#04BB00"/>
<path d="M333 194C333.211 196.312 333.211 196.312 333 199C328.409 204.334 319.294 209.486 312.324 210.32C311.557 210.215 310.79 210.109 310 210C307.71 206.565 307.821 205.015 308 201C326.37 194 326.37 194 333 194Z" fill="#021D2A"/>
<path d="M430 178C430.33 178 430.66 178 431 178C431.077 182.516 431.102 186.591 430 191C430.66 191 431.32 191 432 191C431.594 192.002 431.594 192.002 431.18 193.023C430.306 195.227 429.462 197.443 428.633 199.664C428.13 200.984 427.628 202.305 427.125 203.625C426.881 204.293 426.638 204.96 426.387 205.648C424.895 209.514 423.638 211.905 420 214C419.34 213.34 418.68 212.68 418 212C417.01 212 416.02 212 415 212C415.33 209.69 415.66 207.38 416 205C416.66 205 417.32 205 418 205C418.351 203.763 418.701 202.525 419.062 201.25C420.784 196.011 423.475 191.56 426.379 186.895C428.009 183.984 429.05 181.19 430 178Z" fill="#04BB00"/>
<path d="M305 96C308.747 97.2491 309.69 98.7939 312.125 101.875C312.911 102.862 313.698 103.85 314.508 104.867C314.915 105.382 315.323 105.898 315.743 106.429C318.518 109.898 321.399 113.282 324.25 116.688C326 119 326 119 327 122C327.66 122 328.32 122 329 122C330.91 124.082 330.91 124.082 333.062 126.812C333.775 127.706 334.488 128.599 335.223 129.52C337 132 337 132 338 135C334.933 134.671 334.087 134.104 332.062 131.688C331.382 130.801 330.701 129.914 330 129C329.237 128.402 328.474 127.804 327.688 127.188C325.472 125.384 323.884 123.78 322.062 121.625C316.452 115.038 310.152 109.075 304 103C304.33 102.34 304.66 101.68 305 101C304.676 99.6643 304.343 98.3308 304 97C304.33 96.67 304.66 96.34 305 96Z" fill="#04BB00"/>
<path d="M399 205C404.28 205.99 409.56 206.98 415 208C412.375 217.75 412.375 217.75 409 220C405.562 220.438 405.562 220.438 402 220C398.711 217.217 398.058 215.676 397.688 211.375C398 208 398 208 399 205Z" fill="#021D2A"/>
<path d="M442 94C455.654 97.0521 468.782 101.45 482 106C481.67 107.65 481.34 109.3 481 111C480.462 110.71 479.925 110.42 479.371 110.121C472.413 106.831 464.693 105.102 457.188 103.562C451.843 102.377 447.091 100.769 443 97C442.67 96.01 442.34 95.02 442 94Z" fill="#021D2A"/>
<path d="M572 221C579.796 220.863 586.067 221.255 593.012 225.031C595.23 226.198 595.23 226.198 598.812 226.937C602 228 602 228 603.938 230.625C604.288 231.409 604.639 232.192 605 233C605.99 232.34 606.98 231.68 608 231C608 232.98 608 234.96 608 237C607.34 237 606.68 237 606 237C605.732 238.134 605.464 239.269 605.188 240.437C604.796 241.613 604.404 242.789 604 244C603.01 244.33 602.02 244.66 601 245C600.67 245.66 600.34 246.32 600 247C600 246.01 600 245.02 600 244C600.66 244 601.32 244 602 244C601.505 241.525 601.505 241.525 601 239C600.34 239 599.68 239 599 239C598.938 239.536 598.876 240.072 598.812 240.625C597.62 244.111 595.438 246.249 593 249C591.68 248.67 590.36 248.34 589 248C589.543 247.42 590.085 246.84 590.645 246.242C597.773 238.746 597.773 238.746 600 229C598.9 228.746 597.801 228.492 596.668 228.23C588.399 226.309 580.166 224.328 572 222C572 221.67 572 221.34 572 221Z" fill="#04BB00"/>
<path d="M0 222C0.99 222 1.98 222 3 222C3.39832 222.771 3.79664 223.542 4.20703 224.336C4.73684 225.339 5.26664 226.342 5.8125 227.375C6.33457 228.373 6.85664 229.37 7.39453 230.398C8.89165 233.229 8.89165 233.229 12 235C14.2791 235.454 14.2791 235.454 16.6875 235.625C17.4957 235.7 18.304 235.775 19.1367 235.852C19.7516 235.901 20.3665 235.95 21 236C21 236.33 21 236.66 21 237C19.02 237 17.04 237 15 237C16.877 241.896 16.877 241.896 20 246C13.4804 245.523 9.44728 242.831 5.25781 237.984C1.36696 232.66 0.208413 228.565 0 222Z" fill="#04BB00"/>
<path d="M440 214C446.037 214.805 452.013 215.885 458 217C458 217.66 458 218.32 458 219C462.95 219 467.9 219 473 219C472.01 219.33 471.02 219.66 470 220C470 220.66 470 221.32 470 222C471.603 222.196 473.208 222.381 474.812 222.562C475.706 222.667 476.599 222.771 477.52 222.879C480.134 223.157 480.134 223.157 483 222C483 221.34 483 220.68 483 220C483.99 220.33 484.98 220.66 486 221C484.35 224.3 482.7 227.6 481 231C480.505 230.01 480.505 230.01 480 229C480.33 228.34 480.66 227.68 481 227C480.354 226.853 479.708 226.706 479.043 226.555C469.926 224.385 461.063 221.545 452.145 218.683C448.113 217.399 444.058 216.197 440 215C440 214.67 440 214.34 440 214Z" fill="#E11414"/>
<path d="M506 204C513.214 203.753 520.015 204.031 527 206C527.33 206.33 527.66 206.66 528 207C530.498 207.537 532.989 208.035 535.5 208.5C542.865 209.865 542.865 209.865 544 211C544.393 216.114 543.876 218.797 541 223C540.567 224.238 540.567 224.238 540.125 225.5C538.679 228.713 536.571 230.632 534 233C534.717 227.981 536.903 224.688 539.625 220.5C541.035 217.937 541.495 215.857 542 213C538.16 212.015 534.319 211.037 530.477 210.064C528.536 209.572 526.596 209.074 524.656 208.576C518.438 207.006 512.393 205.573 506 205C506 204.67 506 204.34 506 204Z" fill="#04BB00"/>
<path d="M247 27C251.95 27.7965 256.582 29.4532 261.312 31.0625C262.148 31.3442 262.984 31.6258 263.846 31.916C265.898 32.608 267.949 33.3036 270 34C265.374 35.292 262.6 34.3033 258 33C259.634 34.7084 260.869 35.9345 263 37C263 37.99 263 38.98 263 40C262.34 40 261.68 40 261 40C261.33 41.65 261.66 43.3 262 45C258.323 41.4226 254.956 37.7015 251.688 33.75C251.233 33.2086 250.779 32.6672 250.311 32.1094C247 28.1268 247 28.1268 247 27Z" fill="#C29A6C"/>
<path d="M115 188C115.66 188.33 116.32 188.66 117 189C117 189.66 117 190.32 117 191C117.99 191.33 118.98 191.66 120 192C118.667 196 117.333 200 116 204C116.66 204.33 117.32 204.66 118 205C116.68 205.33 115.36 205.66 114 206C113.67 205.01 113.34 204.02 113 203C111.02 203.66 109.04 204.32 107 205C107.289 204.443 107.577 203.886 107.875 203.312C109.021 201.038 109.021 201.038 109.875 198.75C111.383 195.063 113.188 191.545 115 188Z" fill="#04BB00"/>
<path d="M524 246C524.33 246.66 524.66 247.32 525 248C524.01 249.485 524.01 249.485 523 251C519.375 251.688 519.375 251.688 516 252C515.67 253.65 515.34 255.3 515 257C512.373 256.551 509.749 256.091 507.125 255.625C506.379 255.499 505.632 255.372 504.863 255.242C499.227 254.227 499.227 254.227 497 252C499.97 252 502.94 252 506 252C506 251.34 506 250.68 506 250C506.66 250 507.32 250 508 250C508 249.34 508 248.68 508 248C508.849 248.24 508.849 248.24 509.715 248.484C512.053 249.012 514.168 249.201 516.562 249.25C517.327 249.276 518.091 249.302 518.879 249.328C521.497 248.923 522.345 248.009 524 246Z" fill="#04BB00"/>
<path d="M464 101C470.42 101.571 476.016 103.673 482 106C481.67 107.65 481.34 109.3 481 111C480.468 110.711 479.935 110.423 479.387 110.125C471.774 106.537 463.217 104.671 455 103C458.383 102.024 460.566 102.141 464 103C464 102.34 464 101.68 464 101Z" fill="#021D2A"/>
<path d="M83.0001 231C82.3607 231.289 81.7213 231.578 81.0626 231.875C78.848 232.828 78.848 232.828 78.0001 235C77.0513 234.959 76.1026 234.918 75.1251 234.875C70.2928 234.855 65.6938 235.942 61.0001 237C60.973 238.917 60.9536 240.833 60.9376 242.75C60.926 243.817 60.9144 244.885 60.9024 245.984C60.9857 248.554 61.1107 250.599 62.0001 253C63.9839 254.284 63.9839 254.284 66.0001 255C63.0001 255 63.0001 255 60.0001 253C58.8133 249.44 58.9032 246.562 58.9376 242.813C58.9466 241.54 58.9556 240.268 58.9649 238.957C58.9765 237.981 58.9881 237.005 59.0001 236C60.1925 235.651 61.3848 235.301 62.6134 234.941C64.1798 234.482 65.7462 234.022 67.3126 233.563C68.4911 233.217 68.4911 233.217 69.6934 232.865C70.8294 232.532 70.8294 232.532 71.9884 232.191C72.6849 231.987 73.3814 231.783 74.099 231.573C79.5527 229.93 79.5527 229.93 83.0001 231Z" fill="#E11414"/>
<path d="M554 198C561.386 198.957 568.141 200.041 575 203C574.67 204.32 574.34 205.64 574 207C573.295 206.693 572.59 206.386 571.863 206.07C568.957 204.984 566.242 204.39 563.188 203.875C562.212 203.707 561.236 203.54 560.23 203.367C559.494 203.246 558.758 203.125 558 203C558 202.34 558 201.68 558 201C556.68 200.34 555.36 199.68 554 199C554 198.67 554 198.34 554 198Z" fill="#021D2A"/>
<path d="M599 239C599.66 239 600.32 239 601 239C601.33 240.65 601.66 242.3 602 244C601.34 244 600.68 244 600 244C599.876 244.928 599.752 245.856 599.625 246.812C599 250 599 250 597 253C595.608 252.505 595.608 252.505 594.188 252C591.08 250.85 591.08 250.85 588 251C588.33 250.34 588.66 249.68 589 249C589.866 248.876 589.866 248.876 590.75 248.75C594.312 247.563 595.819 244.948 598 242C598.33 241.01 598.66 240.02 599 239Z" fill="#04BB00"/>
<path d="M498 200C499.65 200 501.3 200 503 200C503 200.99 503 201.98 503 203C503.99 203.66 504.98 204.32 506 205C502.375 210.875 502.375 210.875 499 212C498.34 212.66 497.68 213.32 497 214C497.33 209.38 497.66 204.76 498 200Z" fill="#04BB00"/>
<path d="M112 221C109 223 109 223 106 223C106 224.32 106 225.64 106 227C106.66 227.33 107.32 227.66 108 228C108 229.32 108 230.64 108 232C109.32 232 110.64 232 112 232C112.66 233.98 113.32 235.96 114 238C113.01 238 112.02 238 111 238C109.259 236.117 107.763 234.302 106.25 232.25C105.826 231.711 105.402 231.172 104.965 230.617C101.976 226.625 101.976 226.625 102.09 223.691C103 222 103 222 105.313 220.687C108.077 219.98 109.367 220.025 112 221Z" fill="#E11414"/>
<path d="M506 232C510.62 232 515.24 232 520 232C520 232.66 520 233.32 520 234C523.3 234 526.6 234 530 234C530 235.65 530 237.3 530 239C529.67 238.34 529.34 237.68 529 237C526.969 236.759 524.936 236.53 522.898 236.352C517.192 235.659 511.602 234.267 506 233C506 232.67 506 232.34 506 232Z" fill="#E11414"/>
<path d="M322 193C325.63 193 329.26 193 333 193C329.561 195.293 326.097 196.368 322.188 197.562C321.488 197.784 320.789 198.005 320.068 198.232C316.065 199.472 312.163 200.418 308 201C308.617 199.078 308.617 199.078 310 197C312.82 196.172 312.82 196.172 316.125 195.75C317.769 195.526 317.769 195.526 319.445 195.297C320.288 195.199 321.131 195.101 322 195C322 194.34 322 193.68 322 193Z" fill="#E11414"/>
<path d="M572 221C579.795 220.863 586.043 221.275 593 225.012C595.918 226.453 598.848 227.212 602 228C602 229.65 602 231.3 602 233C601.834 232.382 601.667 231.765 601.496 231.129C599.172 227.822 595.824 227.666 592.062 226.937C590.523 226.609 588.984 226.28 587.445 225.949C586.69 225.791 585.935 225.633 585.157 225.47C580.723 224.503 576.363 223.244 572 222C572 221.67 572 221.34 572 221Z" fill="#04BB00"/>
<path d="M192 197C192 197.66 192 198.32 192 199C188.772 199.675 185.543 200.338 182.312 201C181.4 201.191 180.488 201.382 179.549 201.578C178.663 201.759 177.776 201.939 176.863 202.125C175.646 202.376 175.646 202.376 174.404 202.633C171.899 203.015 169.529 203.063 167 203C174.732 197.845 182.885 196.843 192 197Z" fill="#E11414"/>
<path d="M342 169C342.33 169 342.66 169 343 169C344.861 176.32 345.558 183.468 346 191C344.68 191.33 343.36 191.66 342 192C342 184.41 342 176.82 342 169Z" fill="#E11414"/>
<path d="M362 195C369.26 195 376.52 195 384 195C384 196.32 384 197.64 384 199C376.522 198.512 369.311 197.666 362 196C362 195.67 362 195.34 362 195Z" fill="#E11414"/>
<path d="M158 115C158.66 115.66 159.32 116.32 160 117C159.691 121.331 157.772 124.459 155.562 128.125C154.945 129.159 154.328 130.193 153.691 131.258C152.497 133.194 151.262 135.107 150 137C150 134.69 150 132.38 150 130C150.639 129.773 151.279 129.546 151.938 129.312C154.272 128.147 154.272 128.147 154.75 125.375C154.833 124.591 154.915 123.808 155 123C155.66 123 156.32 123 157 123C157.33 120.36 157.66 117.72 158 115Z" fill="#04BB00"/>
<path d="M228 216C230.31 216 232.62 216 235 216C235 216.66 235 217.32 235 218C232.251 218.672 229.501 219.338 226.75 220C225.973 220.191 225.195 220.382 224.395 220.578C223.263 220.849 223.263 220.849 222.109 221.125C221.418 221.293 220.727 221.46 220.015 221.633C218 222 218 222 214 222C213.67 222.66 213.34 223.32 213 224C213 222.68 213 221.36 213 220C215.64 219.67 218.28 219.34 221 219C221 218.67 221 218.34 221 218C223.31 218 225.62 218 228 218C228 217.34 228 216.68 228 216Z" fill="#E11414"/>
<path d="M166 202C166 202.99 166 203.98 166 205C163.094 206.257 161.204 207 158 207C157.833 209.416 157.833 209.416 158 212C158.66 212.66 159.32 213.32 160 214C160.165 215.011 160.33 216.021 160.5 217.062C160.665 218.032 160.83 219.001 161 220C161.66 220.33 162.32 220.66 163 221C162.01 221 161.02 221 160 221C159.131 219.425 158.28 217.839 157.438 216.25C156.962 215.368 156.486 214.487 155.996 213.578C154.907 210.759 154.817 209.735 156 207C158.098 204.902 159.38 204.349 162.125 203.375C162.849 203.115 163.574 202.854 164.32 202.586C165.152 202.296 165.152 202.296 166 202Z" fill="#E11414"/>
<path d="M268 53C269.667 54.6667 271.333 56.3333 273 58C273.897 58.8353 273.897 58.8353 274.812 59.6875C276 61 276 61 276 63C275.34 63 274.68 63 274 63C273.876 63.5775 273.752 64.155 273.625 64.75C272.994 67.0234 272.111 68.9254 271 71C270.34 69.35 269.68 67.7 269 66C269.516 65.6287 270.031 65.2575 270.562 64.875C272.363 62.9683 272.363 62.9683 271.688 59.8125C271.461 58.8844 271.234 57.9563 271 57C270.01 57 269.02 57 268 57C268 55.68 268 54.36 268 53Z" fill="#04BB00"/>
<path d="M288 81C289.32 81.66 290.64 82.32 292 83C292 83.66 292 84.32 292 85C292.99 85 293.98 85 295 85C295.33 85.99 295.66 86.98 296 88C295.01 89.485 295.01 89.485 294 91C288.262 88.5581 288.262 88.5581 287.063 86C287 84 287 84 288 81Z" fill="#04BB00"/>
<path d="M430 195C430.33 195 430.66 195 431 195C432.365 200.334 432.365 200.334 430.562 203.625C430.047 204.409 429.531 205.192 429 206C429 207.32 429 208.64 429 210C427.35 210 425.7 210 424 210C424.809 207.686 425.622 205.374 426.438 203.062C426.668 202.403 426.898 201.744 427.135 201.064C428.887 196.113 428.887 196.113 430 195Z" fill="#E11414"/>
<path d="M66 256C68.64 256 71.28 256 74 256C74 256.66 74 257.32 74 258C75.32 258 76.64 258 78 258C78 258.66 78 259.32 78 260C82.29 260 86.58 260 91 260C91 260.33 91 260.66 91 261C81.7619 261.486 74.4598 260.867 66 257C66 256.67 66 256.34 66 256Z" fill="#E11414"/>
<path d="M600 233C601 235 601 235 599.875 238.75C598.244 242.908 596.019 245.736 593 249C591.68 248.67 590.36 248.34 589 248C589.543 247.42 590.085 246.84 590.645 246.242C594.5 242.033 597.825 238.302 600 233Z" fill="#04BB00"/>
<path d="M192 197C192.99 197 193.98 197 195 197C195 198.32 195 199.64 195 201C192.105 201.337 189.209 201.67 186.312 202C185.496 202.095 184.679 202.191 183.838 202.289C179.871 202.739 176 203.13 172 203C175.207 200.862 177.116 200.466 180.875 199.875C181.904 199.707 182.932 199.54 183.992 199.367C186.703 199.036 189.274 198.93 192 199C192 198.34 192 197.68 192 197Z" fill="#E11414"/>
<path d="M440 214C446.037 214.805 452.013 215.885 458 217C458 217.66 458 218.32 458 219C460.475 219.495 460.475 219.495 463 220C459.682 221.114 457.752 220.877 454.453 219.785C453.609 219.511 452.764 219.237 451.895 218.955C451.022 218.661 450.149 218.366 449.25 218.062C448.362 217.772 447.474 217.481 446.559 217.182C444.369 216.464 442.183 215.736 440 215C440 214.67 440 214.34 440 214Z" fill="#E11414"/>
<path d="M102 239C105.94 240.313 106.25 241.814 108.125 245.438C108.643 246.426 109.161 247.415 109.695 248.434C110.468 249.953 111.237 251.475 112 253C110.35 253 108.7 253 107 253C107 250.69 107 248.38 107 246C106.361 245.773 105.721 245.546 105.062 245.312C103 244 103 244 102.25 241.375C102.167 240.591 102.085 239.808 102 239Z" fill="#E11414"/>
<path d="M460 219C464.29 219 468.58 219 473 219C472.01 219.33 471.02 219.66 470 220C470 220.99 470 221.98 470 223C472.97 223.495 472.97 223.495 476 224C472.571 225.188 470.622 224.802 467.25 223.562C466.451 223.275 465.652 222.988 464.828 222.691C464.225 222.463 463.622 222.235 463 222C463 221.34 463 220.68 463 220C462.01 219.67 461.02 219.34 460 219Z" fill="#E11414"/>
<path d="M441.875 180.438C445.643 181.116 448.551 182.345 452 184C452 184.33 452 184.66 452 185C450.645 184.822 450.645 184.822 449.262 184.641C448.082 184.512 446.903 184.383 445.688 184.25C444.516 184.111 443.344 183.972 442.137 183.828C438.905 183.649 438.905 183.649 437.082 185.984C436.725 186.65 436.368 187.315 436 188C435.34 187.67 434.68 187.34 434 187C438.129 181.17 438.129 181.17 441.875 180.438Z" fill="#E11414"/>
<path d="M414 172C416.201 172.734 418.401 173.467 420.602 174.203C422.564 174.855 424.531 175.492 426.5 176.125C429 177 429 177 430 178C430.041 179.666 430.043 181.334 430 183C429.01 183.495 429.01 183.495 428 184C428 182.02 428 180.04 428 178C427.073 177.818 426.146 177.636 425.191 177.449C423.994 177.198 422.796 176.946 421.562 176.688C420.368 176.444 419.173 176.2 417.941 175.949C416.485 175.479 416.485 175.479 415 175C414.67 174.01 414.34 173.02 414 172Z" fill="#E11414"/>
<path d="M112 253C108.716 254.682 105.382 256.212 102 257.688C100.969 258.145 99.9375 258.603 98.875 259.074C95.9617 260.012 94.7915 260.107 92 259C92.99 259 93.98 259 95 259C95 258.34 95 257.68 95 257C106.522 252.408 106.522 252.408 112 253Z" fill="#E11414"/>
<path d="M433 182C433.66 182.33 434.32 182.66 435 183C434.125 188.75 434.125 188.75 433 191C432.01 191 431.02 191 430 191C429.103 188.489 428.868 187.355 429.812 184.812C431 183 431 183 433 182Z" fill="#04BB00"/>
<path d="M402 183C403.253 187.267 402.768 191.145 402.25 195.5C402.175 196.259 402.1 197.019 402.023 197.801C401.538 201.998 401.056 204.843 398 208C397.957 206.334 397.959 204.666 398 203C398.33 202.67 398.66 202.34 399 202C399.376 199.187 399.707 196.384 400 193.562C400.867 185.266 400.867 185.266 402 183Z" fill="#E11414"/>
<path d="M211 159C212.188 160.625 212.188 160.625 213 163C211.829 166.252 210.865 168.358 208.062 170.438C205.643 171.097 204.372 170.679 202 170C202.482 169.625 202.964 169.25 203.461 168.863C207.129 165.892 209.746 163.737 211 159Z" fill="#021D2A"/>
<path d="M296 168C296.33 168 296.66 168 297 168C297 170.64 297 173.28 297 176C295.68 175.67 294.36 175.34 293 175C292.67 175.99 292.34 176.98 292 178C289.69 178 287.38 178 285 178C286 176 286 176 288.285 175.148C289.66 174.766 289.66 174.766 291.062 174.375C291.982 174.115 292.901 173.854 293.848 173.586C294.558 173.393 295.268 173.199 296 173C296 171.35 296 169.7 296 168Z" fill="#E11414"/>
<path d="M218 62C219.65 62.99 221.3 63.98 223 65C222.67 66.32 222.34 67.64 222 69C219.36 69.66 216.72 70.32 214 71C214.33 70.34 214.66 69.68 215 69C215.99 69 216.98 69 218 69C218 66.69 218 64.38 218 62Z" fill="#021D2A"/>
<path d="M246 24C248.97 24.99 251.94 25.98 255 27C254.67 27.66 254.34 28.32 254 29C251.03 28.505 251.03 28.505 248 28C248.66 29.32 249.32 30.64 250 32C249.34 32 248.68 32 248 32C246.611 30.0385 245.274 28.0383 244 26C244.66 26 245.32 26 246 26C246 25.34 246 24.68 246 24Z" fill="#04BB00"/>
<path d="M548 237C548.66 237 549.32 237 550 237C550 237.66 550 238.32 550 239C552.31 239.33 554.62 239.66 557 240C557 240.66 557 241.32 557 242C557.99 242.33 558.98 242.66 560 243C555.333 242.333 550.667 241.667 546 241C546.66 239.68 547.32 238.36 548 237Z" fill="#E11414"/>
<path d="M484 195C486.97 195 489.94 195 493 195C493.33 195.99 493.66 196.98 494 198C495.32 198 496.64 198 498 198C498 198.66 498 199.32 498 200C496.04 199.55 494.082 199.09 492.125 198.625C491.034 198.37 489.944 198.115 488.82 197.852C486 197 486 197 484 195Z" fill="#04BB00"/>
<path d="M507.27 204.613C509.541 204.624 511.744 204.74 514 205C514 205.33 514 205.66 514 206C509.545 206.495 509.545 206.495 505 207C504.67 208.32 504.34 209.64 504 211C502.438 212.75 502.438 212.75 501 214C501 209.589 502.484 205.429 507.27 204.613Z" fill="#E11414"/>
<path d="M215 4C215.99 4.33 216.98 4.66 218 5C218 5.66 218 6.32 218 7C217.34 7 216.68 7 216 7C216 8.65 216 10.3 216 12C214.68 12 213.36 12 212 12C212.547 8.62537 213.055 6.91765 215 4Z" fill="#04BB00"/>
<path d="M156 239C151.895 241.299 147.309 243.355 142.562 242.625C142.047 242.419 141.531 242.212 141 242C141.66 242 142.32 242 143 242C143 241.34 143 240.68 143 240C147.409 238.898 151.484 238.923 156 239Z" fill="#E11414"/>
<path d="M599 235C597.606 239.435 595.394 241.874 592 245C594.453 235 594.453 235 599 235Z" fill="#E11414"/>
<path d="M535 223C535.99 223 536.98 223 538 223C535.93 228.414 533.661 233.467 530 238C530 236.35 530 234.7 530 233C530.66 232.67 531.32 232.34 532 232C532.907 229.887 532.907 229.887 533.625 227.438C533.885 226.611 534.146 225.785 534.414 224.934C534.607 224.296 534.801 223.657 535 223Z" fill="#E11414"/>
<path d="M113 240C113.66 240 114.32 240 115 240C115.33 240.66 115.66 241.32 116 242C118.025 242.652 118.025 242.652 120 243C120 244.32 120 245.64 120 247C120.99 247.33 121.98 247.66 123 248C122.01 248 121.02 248 120 248C119.67 248.66 119.34 249.32 119 250C117 246.667 115 243.333 113 240Z" fill="#E11414"/>
<path d="M0 222C0.99 222 1.98 222 3 222C3.66 223.98 4.32 225.96 5 228C4.01 227.67 3.02 227.34 2 227C1.67 228.32 1.34 229.64 1 231C0.67 228.03 0.34 225.06 0 222Z" fill="#04BB00"/>
<path d="M195 199C197.925 202.9 198.475 204.383 199 209C198.67 208.34 198.34 207.68 198 207C196.02 207.99 196.02 207.99 194 209C194.33 205.7 194.66 202.4 195 199Z" fill="#E11414"/>
<path d="M183.688 193.875C184.9 193.902 184.9 193.902 186.137 193.93C187.059 193.965 187.059 193.965 188 194C188 194.66 188 195.32 188 196C184.04 196.66 180.08 197.32 176 198C176 197.34 176 196.68 176 196C179.204 193.864 180.019 193.769 183.688 193.875Z" fill="#04BB00"/>
<path d="M570 215C570 216.32 570 217.64 570 219C566.7 218.67 563.4 218.34 560 218C560 217.67 560 217.34 560 217C563.62 215.684 566.096 215 570 215Z" fill="#04BB00"/>
<path d="M453 165C454.083 165.712 454.083 165.712 455.188 166.438C457.895 167.942 459.962 168.566 463 169C461.5 170.125 461.5 170.125 459 171C456.223 170.576 453.704 169.811 451 169C451.66 168.67 452.32 168.34 453 168C453 167.01 453 166.02 453 165Z" fill="#021D2A"/>
<path d="M442 94C446.455 94.99 446.455 94.99 451 96C450.01 96.33 449.02 96.66 448 97C448.33 97.99 448.66 98.98 449 100C446.625 99.25 446.625 99.25 444 98C443.34 96.68 442.68 95.36 442 94Z" fill="#021D2A"/>
<path d="M607 228C610.63 228.66 614.26 229.32 618 230C618.33 230.99 618.66 231.98 619 233C614.916 232.257 610.981 231.171 607 230C607 229.34 607 228.68 607 228Z" fill="#04BB00"/>
<path d="M262 45C262.99 45 263.98 45 265 45C265 45.66 265 46.32 265 47C266.32 47.33 267.64 47.66 269 48C269 49.65 269 51.3 269 53C266.352 50.4222 264.056 48.0835 262 45Z" fill="#C29A6C"/>
<path d="M487 219C487.33 219 487.66 219 488 219C488 220.65 488 222.3 488 224C487.34 224 486.68 224 486 224C485.34 225.32 484.68 226.64 484 228C483.25 226.312 483.25 226.312 483 224C484.875 221.25 484.875 221.25 487 219Z" fill="#04BB00"/>
<path d="M266 207C266.33 207.66 266.66 208.32 267 209C269.025 209.652 269.025 209.652 271 210C271 210.66 271 211.32 271 212C270.01 212.33 269.02 212.66 268 213C267.67 215.31 267.34 217.62 267 220C266.67 220 266.34 220 266 220C266 215.71 266 211.42 266 207Z" fill="#E11414"/>
<path d="M476 105C478.007 105.287 480.009 105.619 482 106C481.67 107.65 481.34 109.3 481 111C480.01 110.67 479.02 110.34 478 110C478 109.01 478 108.02 478 107C477.01 106.67 476.02 106.34 475 106C475.33 105.67 475.66 105.34 476 105Z" fill="#021D2A"/>
<path d="M129 248C128.01 248.33 127.02 248.66 126 249C124.781 251.504 124.781 251.504 124 254C123.01 253.34 122.02 252.68 121 252C121 251.01 121 250.02 121 249C126.75 246.875 126.75 246.875 129 248Z" fill="#021D2A"/>
<path d="M537 225C537.99 225 538.98 225 540 225C538.557 228.366 536.667 230.51 534 233C534.547 229.625 535.055 227.918 537 225Z" fill="#04BB00"/>
<path d="M333 185C333.33 185 333.66 185 334 185C334 189.29 334 193.58 334 198C333.67 198 333.34 198 333 198C332.34 194.37 331.68 190.74 331 187C331.66 187 332.32 187 333 187C333 186.34 333 185.68 333 185Z" fill="#E11414"/>
<path d="M181.688 166.125C182.781 166.414 183.874 166.702 185 167C185.33 167.66 185.66 168.32 186 169C184.948 168.979 183.896 168.959 182.812 168.937C179.673 168.989 177.031 169.265 174 170C176.552 166.631 177.342 165.978 181.688 166.125Z" fill="#021D2A"/>
<path d="M138 139C138.99 139.99 139.98 140.98 141 142C140.01 143.485 140.01 143.485 139 145C138.34 145 137.68 145 137 145C136.67 145.66 136.34 146.32 136 147C136.875 140.125 136.875 140.125 138 139Z" fill="#04BB00"/>
<path d="M588 208C591.96 209.98 591.96 209.98 596 212C592.164 212.959 590.676 212.919 587 212C587.33 210.68 587.66 209.36 588 208Z" fill="#021D2A"/>
<path d="M451 241C452.437 240.919 453.874 240.861 455.312 240.812C456.513 240.76 456.513 240.76 457.738 240.707C460.479 241.062 461.292 241.894 463 244C454.964 243.196 454.964 243.196 451 241Z" fill="#04BB00"/>
<path d="M199 209C202.15 212.423 202.562 215.443 203 220C200.966 218.585 200.096 217.45 199.578 215.02C199.337 213.018 199.165 211.009 199 209Z" fill="#E11414"/>
<path d="M498 207C498.99 207 499.98 207 501 207C501 208.32 501 209.64 501 211C499 212.75 499 212.75 497 214C496.957 212 496.959 210 497 208C497.33 207.67 497.66 207.34 498 207Z" fill="#04BB00"/>
<path d="M309 197C311.31 197 313.62 197 316 197C315.01 197.495 315.01 197.495 314 198C314 198.66 314 199.32 314 200C312.02 200.33 310.04 200.66 308 201C308.33 199.68 308.66 198.36 309 197Z" fill="#E11414"/>
<path d="M557.25 158.438C558.142 158.539 559.034 158.641 559.953 158.746C560.629 158.83 561.304 158.914 562 159C562 159.33 562 159.66 562 160C560.043 160.222 558.084 160.427 556.125 160.625C554.489 160.799 554.489 160.799 552.82 160.977C551.424 160.988 551.424 160.988 550 161C549.34 160.34 548.68 159.68 548 159C551.269 157.969 553.86 158.036 557.25 158.438Z" fill="#021D2A"/>
<path d="M394 77C396.64 77 399.28 77 402 77C402 77.66 402 78.32 402 79C402.99 79.33 403.98 79.66 405 80C403 81 403 81 400.836 80.4414C400.024 80.1514 399.212 79.8613 398.375 79.5625C397.558 79.275 396.74 78.9876 395.898 78.6914C395.272 78.4632 394.645 78.2351 394 78C394 77.67 394 77.34 394 77Z" fill="#04BB00"/>
<path d="M95 230C97.964 232.808 100.445 235.183 102 239C100.823 238.267 99.6582 237.513 98.5 236.75C97.5255 236.124 97.5255 236.124 96.5312 235.484C96.0259 234.995 95.5206 234.505 95 234C95 232.68 95 231.36 95 230Z" fill="#021D2A"/>
<path d="M496 219C496.688 220.688 496.688 220.688 497 223C495.688 225.75 495.688 225.75 494 228C493.34 228 492.68 228 492 228C493.059 224.597 494.009 221.986 496 219Z" fill="#E11414"/>
<path d="M251 199C251.31 199.639 251.619 200.279 251.938 200.938C252.835 202.936 252.835 202.936 254 204C254.141 206.671 254.043 209.324 254 212C253.67 212 253.34 212 253 212C251.548 207.463 250.765 203.819 251 199Z" fill="#E11414"/>
<path d="M439 183C439.66 183.33 440.32 183.66 441 184C440.049 185.173 439.089 186.338 438.125 187.5C437.591 188.15 437.058 188.799 436.508 189.469C436.01 189.974 435.513 190.479 435 191C434.34 191 433.68 191 433 191C433.33 190.01 433.66 189.02 434 188C434.66 188 435.32 188 436 188C436.464 187.041 436.464 187.041 436.938 186.062C438 184 438 184 439 183Z" fill="#E11414"/>
<path d="M333 160C333 160.99 333 161.98 333 163C329.7 163 326.4 163 323 163C326.514 161.243 329.104 160 333 160Z" fill="#E11414"/>
<path d="M289 79C291.622 80.0487 292.794 80.6493 294.25 83.125C294.498 83.7437 294.745 84.3625 295 85C294.01 85 293.02 85 292 85C292 84.34 292 83.68 292 83C291.01 82.67 290.02 82.34 289 82C289 81.01 289 80.02 289 79Z" fill="#04BB00"/>
<path d="M156 231C159.013 232.507 159.611 235.032 161 238C159.68 238 158.36 238 157 238C156.67 235.69 156.34 233.38 156 231Z" fill="#E11414"/>
<path d="M206 225C201.545 226.485 201.545 226.485 197 228C197 227.01 197 226.02 197 225C200.676 224.081 202.164 224.041 206 225Z" fill="#E11414"/>
<path d="M483 172C485.875 171.812 485.875 171.812 489 172C489.66 172.99 490.32 173.98 491 175C488.03 174.67 485.06 174.34 482 174C482.33 173.34 482.66 172.68 483 172Z" fill="#021D2A"/>
<path d="M230 37C232.929 37.6276 235.361 38.5862 238 40C238 40.66 238 41.32 238 42C234.204 41.4577 232.528 39.7987 230 37Z" fill="#021D2A"/>
</g>
<defs>
<clipPath id="clip0_161_31">
<rect width="620" height="569" fill="white"/>
</clipPath>
</defs>
</svg>
